M48
; DRILL file {KiCad (6.0.11-0)} date 
; FORMAT={-:-/ absolute / inch / decimal}
; #@! TF.CreationDate,2024-06-01T13:28:00-07:00
; #@! TF.GenerationSoftware,Kicad,Pcbnew,(6.0.11-0)
; #@! TF.FileFunction,Plated,1,2,PTH
FMAT,2
INCH
; #@! TA.AperFunction,Plated,PTH,ComponentDrill
T1C0.0394
; #@! TA.AperFunction,Plated,PTH,ComponentDrill
T2C0.0571
; #@! TA.AperFunction,Plated,PTH,ComponentDrill
T3C0.0591
; #@! TA.AperFunction,Plated,PTH,ComponentDrill
T4C0.0728
; #@! TA.AperFunction,Plated,PTH,ComponentDrill
T5C0.1299
; #@! TA.AperFunction,Plated,PTH,ComponentDrill
T6C0.1654
%
G90
G05
T1
X5.4906Y-2.3031
X5.4906Y-2.4031
X5.4906Y-3.1201
X5.4906Y-3.2201
X5.4906Y-4.9409
X5.4906Y-5.0409
X5.4961Y-4.0256
X5.4961Y-4.1256
X5.5906Y-2.3031
X5.5906Y-2.4031
X5.5906Y-3.1201
X5.5906Y-3.2201
X5.5906Y-4.9409
X5.5906Y-5.0409
X5.5961Y-4.0256
X5.5961Y-4.1256
T2
X5.9896Y-3.5614
X5.9896Y-3.6614
X5.9896Y-3.7614
X6.0896Y-3.5614
X6.0896Y-3.6614
X6.0896Y-3.7614
X6.1205Y-4.0598
X6.1205Y-4.1598
X6.1205Y-4.2598
X6.1896Y-3.5614
X6.1896Y-3.6614
X6.1896Y-3.7614
X6.2205Y-4.0598
X6.2205Y-4.1598
X6.2205Y-4.2598
X6.3205Y-4.0598
X6.3205Y-4.1598
X6.3205Y-4.2598
X6.5732Y-3.7528
X6.5732Y-3.8528
X6.5732Y-3.9528
X6.5732Y-4.1268
X6.5732Y-4.2268
X6.5732Y-4.3268
X6.6732Y-3.7528
X6.6732Y-3.8528
X6.6732Y-3.9528
X6.6732Y-4.1268
X6.6732Y-4.2268
X6.6732Y-4.3268
X6.7732Y-3.7528
X6.7732Y-3.8528
X6.7732Y-3.9528
X6.7732Y-4.1268
X6.7732Y-4.2268
X6.7732Y-4.3268
T3
X6.063Y-4.5472
X6.063Y-4.7047
X6.2598Y-5.0079
X6.2598Y-5.1654
X6.6732Y-4.626
X6.6732Y-4.7835
X6.6732Y-4.9803
X6.6732Y-5.1378
T4
X5.974Y-1.7152
X5.974Y-1.9463
X6.1049Y-2.1689
X6.1049Y-2.4
X6.2051Y-1.7152
X6.2051Y-1.9463
X6.336Y-2.1689
X6.336Y-2.4
X6.5567Y-2.0695
X6.5567Y-2.3006
X6.5577Y-2.473
X6.5577Y-2.7041
X6.7878Y-2.0695
X6.7878Y-2.3006
X6.7888Y-2.473
X6.7888Y-2.7041
T5
X5.7087Y-1.8701
X5.7087Y-5.3957
X6.4961Y-1.8524
X6.4961Y-5.3957
T6
X6.0884Y-2.7331
X6.2193Y-3.2157
X6.672Y-3.0087
X6.672Y-3.3827
T0
M30
