%TF.GenerationSoftware,KiCad,Pcbnew,(6.0.11-0)*%
%TF.CreationDate,2024-06-01T13:31:21-07:00*%
%TF.ProjectId,SC_SQUID_biasBoard,53435f53-5155-4494-945f-62696173426f,v3D.0*%
%TF.SameCoordinates,Original*%
%TF.FileFunction,Copper,L1,Top*%
%TF.FilePolarity,Positive*%
%FSLAX46Y46*%
G04 Gerber Fmt 4.6, Leading zero omitted, Abs format (unit mm)*
G04 Created by KiCad (PCBNEW (6.0.11-0)) date 2024-06-01 13:31:21*
%MOMM*%
%LPD*%
G01*
G04 APERTURE LIST*
G04 Aperture macros list*
%AMRoundRect*
0 Rectangle with rounded corners*
0 $1 Rounding radius*
0 $2 $3 $4 $5 $6 $7 $8 $9 X,Y pos of 4 corners*
0 Add a 4 corners polygon primitive as box body*
4,1,4,$2,$3,$4,$5,$6,$7,$8,$9,$2,$3,0*
0 Add four circle primitives for the rounded corners*
1,1,$1+$1,$2,$3*
1,1,$1+$1,$4,$5*
1,1,$1+$1,$6,$7*
1,1,$1+$1,$8,$9*
0 Add four rect primitives between the rounded corners*
20,1,$1+$1,$2,$3,$4,$5,0*
20,1,$1+$1,$4,$5,$6,$7,0*
20,1,$1+$1,$6,$7,$8,$9,0*
20,1,$1+$1,$8,$9,$2,$3,0*%
G04 Aperture macros list end*
%TA.AperFunction,Profile*%
%ADD10C,0.100000*%
%TD*%
%TA.AperFunction,ComponentPad*%
%ADD11RoundRect,0.100000X-1.900000X-0.900000X1.900000X-0.900000X1.900000X0.900000X-1.900000X0.900000X0*%
%TD*%
%TA.AperFunction,SMDPad,CuDef*%
%ADD12R,4.000000X2.500000*%
%TD*%
%TA.AperFunction,ComponentPad*%
%ADD13C,8.500000*%
%TD*%
%TA.AperFunction,ComponentPad*%
%ADD14C,3.200000*%
%TD*%
%TA.AperFunction,ComponentPad*%
%ADD15R,2.540000X2.540000*%
%TD*%
%TA.AperFunction,ComponentPad*%
%ADD16R,1.700000X1.700000*%
%TD*%
%TA.AperFunction,ComponentPad*%
%ADD17O,1.700000X1.700000*%
%TD*%
%TA.AperFunction,SMDPad,CuDef*%
%ADD18RoundRect,0.165000X1.685000X-0.660000X1.685000X0.660000X-1.685000X0.660000X-1.685000X-0.660000X0*%
%TD*%
%TA.AperFunction,SMDPad,CuDef*%
%ADD19RoundRect,0.571500X-0.571500X-4.128500X0.571500X-4.128500X0.571500X4.128500X-0.571500X4.128500X0*%
%TD*%
%TA.AperFunction,SMDPad,CuDef*%
%ADD20RoundRect,0.571500X0.571500X4.128500X-0.571500X4.128500X-0.571500X-4.128500X0.571500X-4.128500X0*%
%TD*%
%TA.AperFunction,ComponentPad*%
%ADD21C,6.000000*%
%TD*%
G04 APERTURE END LIST*
D10*
X175000000Y-41000000D02*
X135000000Y-41000000D01*
X135000000Y-41000000D02*
X135000000Y-151000000D01*
X135000000Y-151000000D02*
X175000000Y-151000000D01*
X175000000Y-151000000D02*
X175000000Y-41000000D01*
D11*
%TO.P,J20,1,Pin_1*%
%TO.N,/TES_return_iv*%
X169500000Y-117500000D03*
X169500000Y-121500000D03*
D12*
X169500000Y-119500000D03*
%TD*%
D11*
%TO.P,J19,1,Pin_1*%
%TO.N,/TES_return_iv*%
X169500000Y-126500000D03*
X169500000Y-130500000D03*
D12*
X169500000Y-128500000D03*
%TD*%
D13*
%TO.P,J16,1,Pin_1*%
%TO.N,/TES_return_ii*%
X169470000Y-85920000D03*
%TD*%
%TO.P,J15,1,Pin_1*%
%TO.N,/TES_return_ii*%
X169470000Y-76420000D03*
%TD*%
D14*
%TO.P,J14,1,Pin_1*%
%TO.N,/TES_return_i*%
X166565000Y-68685000D03*
X172435000Y-62815000D03*
X172435000Y-68685000D03*
X166565000Y-62815000D03*
%TD*%
%TO.P,J13,1,Pin_1*%
%TO.N,/TES_return_i*%
X166540000Y-58435000D03*
X172410000Y-52565000D03*
X172410000Y-58435000D03*
X166540000Y-52565000D03*
%TD*%
D12*
%TO.P,J12,1,Pin_1*%
%TO.N,/SQUID_return_iv*%
X159000000Y-129200000D03*
D11*
X159000000Y-131200000D03*
X159000000Y-127200000D03*
%TD*%
%TO.P,J11,1,Pin_1*%
%TO.N,/TES_src_iv*%
X154000000Y-115500000D03*
X154000000Y-119500000D03*
D12*
X154000000Y-117500000D03*
%TD*%
D13*
%TO.P,J8,1,Pin_1*%
%TO.N,/SQUID_return_ii*%
X157970000Y-81680000D03*
%TD*%
%TO.P,J7,1,Pin_1*%
%TO.N,/TES_src_ii*%
X154645000Y-69420000D03*
%TD*%
D14*
%TO.P,J6,1,Pin_1*%
%TO.N,/SQUID_return_i*%
X155065000Y-55090000D03*
X160935000Y-60960000D03*
X160935000Y-55090000D03*
X155065000Y-60960000D03*
%TD*%
%TO.P,J5,1,Pin_1*%
%TO.N,/TES_src_i*%
X151740000Y-49435000D03*
X157610000Y-43565000D03*
X157610000Y-49435000D03*
X151740000Y-43565000D03*
%TD*%
D15*
%TO.P,J10,1,Pin_1*%
%TO.N,/SQUID_return_iii*%
X160540000Y-108200000D03*
X160540000Y-105660000D03*
X155460000Y-103120000D03*
X155460000Y-108200000D03*
X158000000Y-105660000D03*
X158000000Y-103120000D03*
X160540000Y-103120000D03*
X158000000Y-108200000D03*
X155460000Y-105660000D03*
%TD*%
D16*
%TO.P,J3,1,Pin_1*%
%TO.N,/TES_src_iii*%
X142140000Y-102250000D03*
D17*
%TO.P,J3,2,Pin_2*%
X139600000Y-102250000D03*
%TO.P,J3,3,Pin_3*%
%TO.N,/SQUID_return_iii*%
X142140000Y-104790000D03*
%TO.P,J3,4,Pin_4*%
X139600000Y-104790000D03*
%TD*%
D15*
%TO.P,J17,1,Pin_1*%
%TO.N,/TES_return_iii*%
X169500000Y-95320000D03*
X169500000Y-97860000D03*
X172040000Y-100400000D03*
X169500000Y-100400000D03*
X172040000Y-95320000D03*
X166960000Y-95320000D03*
X166960000Y-97860000D03*
X172040000Y-97860000D03*
X166960000Y-100400000D03*
%TD*%
D16*
%TO.P,J2,1,Pin_1*%
%TO.N,/TES_src_ii*%
X142000000Y-79250000D03*
D17*
%TO.P,J2,2,Pin_2*%
X139460000Y-79250000D03*
%TO.P,J2,3,Pin_3*%
%TO.N,/SQUID_return_ii*%
X142000000Y-81790000D03*
%TO.P,J2,4,Pin_4*%
X139460000Y-81790000D03*
%TD*%
D15*
%TO.P,J18,1,Pin_1*%
%TO.N,/TES_return_iii*%
X169500000Y-104820000D03*
X166960000Y-107360000D03*
X172040000Y-104820000D03*
X169500000Y-107360000D03*
X166960000Y-109900000D03*
X169500000Y-109900000D03*
X172040000Y-109900000D03*
X166960000Y-104820000D03*
X172040000Y-107360000D03*
%TD*%
D18*
%TO.P,R4,1*%
%TO.N,/TES_src_iv*%
X148000000Y-124650000D03*
%TO.P,R4,2*%
%TO.N,/SQUID_return_iv*%
X148000000Y-130350000D03*
%TD*%
%TO.P,R1,1*%
%TO.N,/TES_src_i*%
X148975000Y-56725000D03*
%TO.P,R1,2*%
%TO.N,/SQUID_return_i*%
X148975000Y-62425000D03*
%TD*%
%TO.P,R2,1*%
%TO.N,/TES_src_ii*%
X148000000Y-77450000D03*
%TO.P,R2,2*%
%TO.N,/SQUID_return_ii*%
X148000000Y-83150000D03*
%TD*%
D16*
%TO.P,J1,1,Pin_1*%
%TO.N,/TES_src_i*%
X142000000Y-58500000D03*
D17*
%TO.P,J1,2,Pin_2*%
X139460000Y-58500000D03*
%TO.P,J1,3,Pin_3*%
%TO.N,/SQUID_return_i*%
X142000000Y-61040000D03*
%TO.P,J1,4,Pin_4*%
X139460000Y-61040000D03*
%TD*%
D19*
%TO.P,HS1,1*%
%TO.N,unconnected-(HS1-Pad1)*%
X170000000Y-144950000D03*
%TD*%
D15*
%TO.P,J9,1,Pin_1*%
%TO.N,/TES_src_iii*%
X152135000Y-93000000D03*
X154675000Y-90460000D03*
X157215000Y-90460000D03*
X157215000Y-95540000D03*
X154675000Y-95540000D03*
X157215000Y-93000000D03*
X152135000Y-90460000D03*
X152135000Y-95540000D03*
X154675000Y-93000000D03*
%TD*%
D20*
%TO.P,HS4,1*%
%TO.N,unconnected-(HS4-Pad1)*%
X159000000Y-144950000D03*
%TD*%
D19*
%TO.P,HS2,1*%
%TO.N,unconnected-(HS2-Pad1)*%
X154000000Y-144950000D03*
%TD*%
%TO.P,HS3,1*%
%TO.N,unconnected-(HS3-Pad1)*%
X173000000Y-144950000D03*
%TD*%
D16*
%TO.P,J4,1,Pin_1*%
%TO.N,/TES_src_iv*%
X142000000Y-125500000D03*
D17*
%TO.P,J4,2,Pin_2*%
X139460000Y-125500000D03*
%TO.P,J4,3,Pin_3*%
%TO.N,/SQUID_return_iv*%
X142000000Y-128040000D03*
%TO.P,J4,4,Pin_4*%
X139460000Y-128040000D03*
%TD*%
D18*
%TO.P,R3,1*%
%TO.N,/TES_src_iii*%
X148000000Y-100650000D03*
%TO.P,R3,2*%
%TO.N,/SQUID_return_iii*%
X148000000Y-106350000D03*
%TD*%
D21*
%TO.P,H2,1*%
%TO.N,N/C*%
X145000000Y-47500000D03*
%TD*%
%TO.P,H4,1*%
%TO.N,N/C*%
X165000000Y-137050000D03*
%TD*%
%TO.P,H1,1*%
%TO.N,N/C*%
X145000000Y-137050000D03*
%TD*%
%TO.P,H3,1*%
%TO.N,N/C*%
X165000000Y-47050000D03*
%TD*%
%TA.AperFunction,Conductor*%
%TO.N,/SQUID_return_ii*%
G36*
X162442121Y-77520002D02*
G01*
X162488614Y-77573658D01*
X162500000Y-77626000D01*
X162500000Y-85874000D01*
X162479998Y-85942121D01*
X162426342Y-85988614D01*
X162374000Y-86000000D01*
X138126000Y-86000000D01*
X138057879Y-85979998D01*
X138011386Y-85926342D01*
X138000000Y-85874000D01*
X138000000Y-81126599D01*
X138020002Y-81058478D01*
X138073658Y-81011985D01*
X138126597Y-81000600D01*
X138477194Y-81002262D01*
X143151817Y-81024416D01*
X143219841Y-81044741D01*
X143266079Y-81098616D01*
X143277199Y-81148165D01*
X143300000Y-82425000D01*
X143313409Y-82424817D01*
X143313410Y-82424817D01*
X147427246Y-82368610D01*
X148023977Y-82360457D01*
X148026052Y-82360446D01*
X153100000Y-82375000D01*
X153099702Y-82360457D01*
X153002638Y-77628584D01*
X153021238Y-77560067D01*
X153073929Y-77512484D01*
X153128611Y-77500000D01*
X162374000Y-77500000D01*
X162442121Y-77520002D01*
G37*
%TD.AperFunction*%
%TD*%
%TA.AperFunction,Conductor*%
%TO.N,/TES_return_ii*%
G36*
X173942121Y-71520002D02*
G01*
X173988614Y-71573658D01*
X174000000Y-71626000D01*
X174000000Y-90874000D01*
X173979998Y-90942121D01*
X173926342Y-90988614D01*
X173874000Y-91000000D01*
X164426000Y-91000000D01*
X164357879Y-90979998D01*
X164311386Y-90926342D01*
X164300000Y-90874000D01*
X164300000Y-71626000D01*
X164320002Y-71557879D01*
X164373658Y-71511386D01*
X164426000Y-71500000D01*
X173874000Y-71500000D01*
X173942121Y-71520002D01*
G37*
%TD.AperFunction*%
%TD*%
%TA.AperFunction,Conductor*%
%TO.N,/SQUID_return_iv*%
G36*
X162442121Y-125020002D02*
G01*
X162488614Y-125073658D01*
X162500000Y-125126000D01*
X162500000Y-133224000D01*
X162479998Y-133292121D01*
X162426342Y-133338614D01*
X162374000Y-133350000D01*
X138126000Y-133350000D01*
X138057879Y-133329998D01*
X138011386Y-133276342D01*
X138000000Y-133224000D01*
X138000000Y-127626000D01*
X138020002Y-127557879D01*
X138073658Y-127511386D01*
X138126000Y-127500000D01*
X143100585Y-127500000D01*
X143168706Y-127520002D01*
X143215199Y-127573658D01*
X143226575Y-127624404D01*
X143250000Y-129475000D01*
X147720115Y-129472332D01*
X153471571Y-129468900D01*
X153471572Y-129468900D01*
X153489688Y-129468889D01*
X153499710Y-125125709D01*
X153519870Y-125057635D01*
X153573632Y-125011266D01*
X153625710Y-125000000D01*
X162374000Y-125000000D01*
X162442121Y-125020002D01*
G37*
%TD.AperFunction*%
%TD*%
%TA.AperFunction,Conductor*%
%TO.N,/TES_return_iv*%
G36*
X173942121Y-115020002D02*
G01*
X173988614Y-115073658D01*
X174000000Y-115126000D01*
X174000000Y-132874000D01*
X173979998Y-132942121D01*
X173926342Y-132988614D01*
X173874000Y-133000000D01*
X164526000Y-133000000D01*
X164457879Y-132979998D01*
X164411386Y-132926342D01*
X164400000Y-132874000D01*
X164400000Y-115126000D01*
X164420002Y-115057879D01*
X164473658Y-115011386D01*
X164526000Y-115000000D01*
X173874000Y-115000000D01*
X173942121Y-115020002D01*
G37*
%TD.AperFunction*%
%TD*%
%TA.AperFunction,Conductor*%
%TO.N,/TES_return_iii*%
G36*
X173942121Y-93020002D02*
G01*
X173988614Y-93073658D01*
X174000000Y-93126000D01*
X174000000Y-112374000D01*
X173979998Y-112442121D01*
X173926342Y-112488614D01*
X173874000Y-112500000D01*
X164476000Y-112500000D01*
X164407879Y-112479998D01*
X164361386Y-112426342D01*
X164350000Y-112374000D01*
X164350000Y-93126000D01*
X164370002Y-93057879D01*
X164423658Y-93011386D01*
X164476000Y-93000000D01*
X173874000Y-93000000D01*
X173942121Y-93020002D01*
G37*
%TD.AperFunction*%
%TD*%
%TA.AperFunction,Conductor*%
%TO.N,/TES_src_iv*%
G36*
X159942121Y-112520002D02*
G01*
X159988614Y-112573658D01*
X160000000Y-112626000D01*
X160000000Y-122374000D01*
X159979998Y-122442121D01*
X159926342Y-122488614D01*
X159874000Y-122500000D01*
X151500000Y-122500000D01*
X151492404Y-122515192D01*
X150034826Y-125430349D01*
X149986471Y-125482333D01*
X149922128Y-125500000D01*
X143500000Y-125500000D01*
X143500000Y-125874000D01*
X143479998Y-125942121D01*
X143426342Y-125988614D01*
X143374000Y-126000000D01*
X138126000Y-126000000D01*
X138057879Y-125979998D01*
X138011386Y-125926342D01*
X138000000Y-125874000D01*
X138000000Y-123553839D01*
X138020002Y-123485718D01*
X138038906Y-123462786D01*
X149463465Y-112534947D01*
X149526518Y-112502315D01*
X149550559Y-112500000D01*
X159874000Y-112500000D01*
X159942121Y-112520002D01*
G37*
%TD.AperFunction*%
%TD*%
%TA.AperFunction,Conductor*%
%TO.N,/TES_src_ii*%
G36*
X159442121Y-65020002D02*
G01*
X159488614Y-65073658D01*
X159500000Y-65126000D01*
X159500000Y-73874000D01*
X159479998Y-73942121D01*
X159426342Y-73988614D01*
X159374000Y-74000000D01*
X154000000Y-74000000D01*
X150036905Y-77963095D01*
X149974593Y-77997121D01*
X149947810Y-78000000D01*
X143500000Y-78000000D01*
X143500000Y-79874000D01*
X143479998Y-79942121D01*
X143426342Y-79988614D01*
X143374000Y-80000000D01*
X138126000Y-80000000D01*
X138057879Y-79979998D01*
X138011386Y-79926342D01*
X138000000Y-79874000D01*
X138000000Y-77552190D01*
X138020002Y-77484069D01*
X138036905Y-77463095D01*
X150463095Y-65036905D01*
X150525407Y-65002879D01*
X150552190Y-65000000D01*
X159374000Y-65000000D01*
X159442121Y-65020002D01*
G37*
%TD.AperFunction*%
%TD*%
%TA.AperFunction,Conductor*%
%TO.N,/TES_src_iii*%
G36*
X159442121Y-88520002D02*
G01*
X159488614Y-88573658D01*
X159500000Y-88626000D01*
X159500000Y-97874000D01*
X159479998Y-97942121D01*
X159426342Y-97988614D01*
X159374000Y-98000000D01*
X151500000Y-98000000D01*
X151492566Y-98017346D01*
X150032728Y-101423634D01*
X149987509Y-101478367D01*
X149916916Y-101500000D01*
X143500000Y-101500000D01*
X143500000Y-102874000D01*
X143479998Y-102942121D01*
X143426342Y-102988614D01*
X143374000Y-103000000D01*
X138626000Y-103000000D01*
X138557879Y-102979998D01*
X138511386Y-102926342D01*
X138500000Y-102874000D01*
X138500000Y-100052190D01*
X138520002Y-99984069D01*
X138536905Y-99963095D01*
X149963095Y-88536905D01*
X150025407Y-88502879D01*
X150052190Y-88500000D01*
X159374000Y-88500000D01*
X159442121Y-88520002D01*
G37*
%TD.AperFunction*%
%TD*%
%TA.AperFunction,Conductor*%
%TO.N,/TES_return_i*%
G36*
X173942121Y-51020002D02*
G01*
X173988614Y-51073658D01*
X174000000Y-51126000D01*
X174000000Y-70374000D01*
X173979998Y-70442121D01*
X173926342Y-70488614D01*
X173874000Y-70500000D01*
X164376000Y-70500000D01*
X164307879Y-70479998D01*
X164261386Y-70426342D01*
X164250000Y-70374000D01*
X164250000Y-65907318D01*
X166999500Y-65907318D01*
X167038934Y-66219473D01*
X167039920Y-66223312D01*
X167116194Y-66520383D01*
X167116197Y-66520391D01*
X167117181Y-66524225D01*
X167233006Y-66816766D01*
X167384584Y-67092484D01*
X167569522Y-67347030D01*
X167784906Y-67576390D01*
X168027337Y-67776947D01*
X168292993Y-67945537D01*
X168296572Y-67947221D01*
X168296579Y-67947225D01*
X168574095Y-68077814D01*
X168574099Y-68077816D01*
X168577685Y-68079503D01*
X168876921Y-68176731D01*
X169185985Y-68235688D01*
X169279489Y-68241571D01*
X169419422Y-68250375D01*
X169419438Y-68250376D01*
X169421417Y-68250500D01*
X169578583Y-68250500D01*
X169580562Y-68250376D01*
X169580578Y-68250375D01*
X169720511Y-68241571D01*
X169814015Y-68235688D01*
X170123079Y-68176731D01*
X170422315Y-68079503D01*
X170425901Y-68077816D01*
X170425905Y-68077814D01*
X170703421Y-67947225D01*
X170703428Y-67947221D01*
X170707007Y-67945537D01*
X170972663Y-67776947D01*
X171215094Y-67576390D01*
X171430478Y-67347030D01*
X171615416Y-67092484D01*
X171766994Y-66816766D01*
X171882819Y-66524225D01*
X171883803Y-66520391D01*
X171883806Y-66520383D01*
X171960080Y-66223312D01*
X171961066Y-66219473D01*
X172000500Y-65907318D01*
X172000500Y-65592682D01*
X171961066Y-65280527D01*
X171932193Y-65168074D01*
X171883806Y-64979617D01*
X171883803Y-64979609D01*
X171882819Y-64975775D01*
X171766994Y-64683234D01*
X171615416Y-64407516D01*
X171430478Y-64152970D01*
X171215094Y-63923610D01*
X170972663Y-63723053D01*
X170707007Y-63554463D01*
X170703428Y-63552779D01*
X170703421Y-63552775D01*
X170425905Y-63422186D01*
X170425901Y-63422184D01*
X170422315Y-63420497D01*
X170123079Y-63323269D01*
X169814015Y-63264312D01*
X169720511Y-63258429D01*
X169580578Y-63249625D01*
X169580562Y-63249624D01*
X169578583Y-63249500D01*
X169421417Y-63249500D01*
X169419438Y-63249624D01*
X169419422Y-63249625D01*
X169279489Y-63258429D01*
X169185985Y-63264312D01*
X168876921Y-63323269D01*
X168577685Y-63420497D01*
X168574099Y-63422184D01*
X168574095Y-63422186D01*
X168296579Y-63552775D01*
X168296572Y-63552779D01*
X168292993Y-63554463D01*
X168027337Y-63723053D01*
X167784906Y-63923610D01*
X167569522Y-64152970D01*
X167384584Y-64407516D01*
X167233006Y-64683234D01*
X167117181Y-64975775D01*
X167116197Y-64979609D01*
X167116194Y-64979617D01*
X167067807Y-65168074D01*
X167038934Y-65280527D01*
X166999500Y-65592682D01*
X166999500Y-65907318D01*
X164250000Y-65907318D01*
X164250000Y-55657318D01*
X166974500Y-55657318D01*
X167013934Y-55969473D01*
X167014920Y-55973312D01*
X167091194Y-56270383D01*
X167091197Y-56270391D01*
X167092181Y-56274225D01*
X167208006Y-56566766D01*
X167359584Y-56842484D01*
X167544522Y-57097030D01*
X167759906Y-57326390D01*
X168002337Y-57526947D01*
X168267993Y-57695537D01*
X168271572Y-57697221D01*
X168271579Y-57697225D01*
X168549095Y-57827814D01*
X168549099Y-57827816D01*
X168552685Y-57829503D01*
X168851921Y-57926731D01*
X169160985Y-57985688D01*
X169254489Y-57991571D01*
X169394422Y-58000375D01*
X169394438Y-58000376D01*
X169396417Y-58000500D01*
X169553583Y-58000500D01*
X169555562Y-58000376D01*
X169555578Y-58000375D01*
X169695511Y-57991571D01*
X169789015Y-57985688D01*
X170098079Y-57926731D01*
X170397315Y-57829503D01*
X170400901Y-57827816D01*
X170400905Y-57827814D01*
X170678421Y-57697225D01*
X170678428Y-57697221D01*
X170682007Y-57695537D01*
X170947663Y-57526947D01*
X171190094Y-57326390D01*
X171405478Y-57097030D01*
X171590416Y-56842484D01*
X171741994Y-56566766D01*
X171857819Y-56274225D01*
X171858803Y-56270391D01*
X171858806Y-56270383D01*
X171935080Y-55973312D01*
X171936066Y-55969473D01*
X171975500Y-55657318D01*
X171975500Y-55342682D01*
X171936066Y-55030527D01*
X171907193Y-54918074D01*
X171858806Y-54729617D01*
X171858803Y-54729609D01*
X171857819Y-54725775D01*
X171741994Y-54433234D01*
X171590416Y-54157516D01*
X171405478Y-53902970D01*
X171190094Y-53673610D01*
X170947663Y-53473053D01*
X170682007Y-53304463D01*
X170678428Y-53302779D01*
X170678421Y-53302775D01*
X170400905Y-53172186D01*
X170400901Y-53172184D01*
X170397315Y-53170497D01*
X170098079Y-53073269D01*
X169789015Y-53014312D01*
X169695511Y-53008429D01*
X169555578Y-52999625D01*
X169555562Y-52999624D01*
X169553583Y-52999500D01*
X169396417Y-52999500D01*
X169394438Y-52999624D01*
X169394422Y-52999625D01*
X169254489Y-53008429D01*
X169160985Y-53014312D01*
X168851921Y-53073269D01*
X168552685Y-53170497D01*
X168549099Y-53172184D01*
X168549095Y-53172186D01*
X168271579Y-53302775D01*
X168271572Y-53302779D01*
X168267993Y-53304463D01*
X168002337Y-53473053D01*
X167759906Y-53673610D01*
X167544522Y-53902970D01*
X167359584Y-54157516D01*
X167208006Y-54433234D01*
X167092181Y-54725775D01*
X167091197Y-54729609D01*
X167091194Y-54729617D01*
X167042807Y-54918074D01*
X167013934Y-55030527D01*
X166974500Y-55342682D01*
X166974500Y-55657318D01*
X164250000Y-55657318D01*
X164250000Y-51126000D01*
X164270002Y-51057879D01*
X164323658Y-51011386D01*
X164376000Y-51000000D01*
X173874000Y-51000000D01*
X173942121Y-51020002D01*
G37*
%TD.AperFunction*%
%TD*%
%TA.AperFunction,Conductor*%
%TO.N,/SQUID_return_i*%
G36*
X162430942Y-53027196D02*
G01*
X162482670Y-53075824D01*
X162500000Y-53139595D01*
X162500000Y-62874000D01*
X162479998Y-62942121D01*
X162426342Y-62988614D01*
X162374000Y-63000000D01*
X138126000Y-63000000D01*
X138057879Y-62979998D01*
X138011386Y-62926342D01*
X138000000Y-62874000D01*
X138000000Y-61326000D01*
X138020002Y-61257879D01*
X138073658Y-61211386D01*
X138126000Y-61200000D01*
X153500000Y-61200000D01*
X153695686Y-58182318D01*
X155499500Y-58182318D01*
X155538934Y-58494473D01*
X155539920Y-58498312D01*
X155616194Y-58795383D01*
X155616197Y-58795391D01*
X155617181Y-58799225D01*
X155733006Y-59091766D01*
X155884584Y-59367484D01*
X155886912Y-59370688D01*
X155886915Y-59370693D01*
X156021077Y-59555351D01*
X156069522Y-59622030D01*
X156284906Y-59851390D01*
X156527337Y-60051947D01*
X156792993Y-60220537D01*
X156796572Y-60222221D01*
X156796579Y-60222225D01*
X157074095Y-60352814D01*
X157074099Y-60352816D01*
X157077685Y-60354503D01*
X157376921Y-60451731D01*
X157685985Y-60510688D01*
X157779489Y-60516571D01*
X157919422Y-60525375D01*
X157919438Y-60525376D01*
X157921417Y-60525500D01*
X158078583Y-60525500D01*
X158080562Y-60525376D01*
X158080578Y-60525375D01*
X158220511Y-60516571D01*
X158314015Y-60510688D01*
X158623079Y-60451731D01*
X158922315Y-60354503D01*
X158925901Y-60352816D01*
X158925905Y-60352814D01*
X159203421Y-60222225D01*
X159203428Y-60222221D01*
X159207007Y-60220537D01*
X159472663Y-60051947D01*
X159715094Y-59851390D01*
X159930478Y-59622030D01*
X159978923Y-59555351D01*
X160113085Y-59370693D01*
X160113088Y-59370688D01*
X160115416Y-59367484D01*
X160266994Y-59091766D01*
X160382819Y-58799225D01*
X160383803Y-58795391D01*
X160383806Y-58795383D01*
X160460080Y-58498312D01*
X160461066Y-58494473D01*
X160500500Y-58182318D01*
X160500500Y-57867682D01*
X160470506Y-57630252D01*
X160461563Y-57559459D01*
X160461562Y-57559455D01*
X160461066Y-57555527D01*
X160426177Y-57419642D01*
X160383806Y-57254617D01*
X160383803Y-57254609D01*
X160382819Y-57250775D01*
X160266994Y-56958234D01*
X160115416Y-56682516D01*
X159930478Y-56427970D01*
X159715094Y-56198610D01*
X159472663Y-55998053D01*
X159207007Y-55829463D01*
X159203428Y-55827779D01*
X159203421Y-55827775D01*
X158925905Y-55697186D01*
X158925901Y-55697184D01*
X158922315Y-55695497D01*
X158623079Y-55598269D01*
X158314015Y-55539312D01*
X158220511Y-55533429D01*
X158080578Y-55524625D01*
X158080562Y-55524624D01*
X158078583Y-55524500D01*
X157921417Y-55524500D01*
X157919438Y-55524624D01*
X157919422Y-55524625D01*
X157779489Y-55533429D01*
X157685985Y-55539312D01*
X157376921Y-55598269D01*
X157077685Y-55695497D01*
X157074099Y-55697184D01*
X157074095Y-55697186D01*
X156796579Y-55827775D01*
X156796572Y-55827779D01*
X156792993Y-55829463D01*
X156527337Y-55998053D01*
X156284906Y-56198610D01*
X156069522Y-56427970D01*
X155884584Y-56682516D01*
X155733006Y-56958234D01*
X155617181Y-57250775D01*
X155616197Y-57254609D01*
X155616194Y-57254617D01*
X155573823Y-57419642D01*
X155538934Y-57555527D01*
X155538438Y-57559455D01*
X155538437Y-57559459D01*
X155529494Y-57630252D01*
X155499500Y-57867682D01*
X155499500Y-58182318D01*
X153695686Y-58182318D01*
X153968106Y-53981311D01*
X153992474Y-53914628D01*
X154049026Y-53871704D01*
X154080977Y-53864123D01*
X162361135Y-53014253D01*
X162430942Y-53027196D01*
G37*
%TD.AperFunction*%
%TD*%
%TA.AperFunction,Conductor*%
%TO.N,/TES_src_i*%
G36*
X159442121Y-42020002D02*
G01*
X159488614Y-42073658D01*
X159500000Y-42126000D01*
X159500000Y-51374000D01*
X159479998Y-51442121D01*
X159426342Y-51488614D01*
X159374000Y-51500000D01*
X154500000Y-51500000D01*
X151000000Y-54500000D01*
X151000000Y-57424000D01*
X150979998Y-57492121D01*
X150926342Y-57538614D01*
X150874000Y-57550000D01*
X143500000Y-57550000D01*
X143500000Y-58874000D01*
X143479998Y-58942121D01*
X143426342Y-58988614D01*
X143374000Y-59000000D01*
X138126000Y-59000000D01*
X138057879Y-58979998D01*
X138011386Y-58926342D01*
X138000000Y-58874000D01*
X138000000Y-56626000D01*
X138020002Y-56557879D01*
X138073658Y-56511386D01*
X138126000Y-56500000D01*
X147500000Y-56500000D01*
X150000000Y-51500000D01*
X150000000Y-46657318D01*
X152174500Y-46657318D01*
X152213934Y-46969473D01*
X152214920Y-46973312D01*
X152291194Y-47270383D01*
X152291197Y-47270391D01*
X152292181Y-47274225D01*
X152408006Y-47566766D01*
X152559584Y-47842484D01*
X152744522Y-48097030D01*
X152809731Y-48166470D01*
X152932482Y-48297186D01*
X152959906Y-48326390D01*
X153202337Y-48526947D01*
X153467993Y-48695537D01*
X153471572Y-48697221D01*
X153471579Y-48697225D01*
X153749095Y-48827814D01*
X153749099Y-48827816D01*
X153752685Y-48829503D01*
X154051921Y-48926731D01*
X154360985Y-48985688D01*
X154454489Y-48991571D01*
X154594422Y-49000375D01*
X154594438Y-49000376D01*
X154596417Y-49000500D01*
X154753583Y-49000500D01*
X154755562Y-49000376D01*
X154755578Y-49000375D01*
X154895511Y-48991571D01*
X154989015Y-48985688D01*
X155298079Y-48926731D01*
X155597315Y-48829503D01*
X155600901Y-48827816D01*
X155600905Y-48827814D01*
X155878421Y-48697225D01*
X155878428Y-48697221D01*
X155882007Y-48695537D01*
X156147663Y-48526947D01*
X156390094Y-48326390D01*
X156417519Y-48297186D01*
X156540269Y-48166470D01*
X156605478Y-48097030D01*
X156790416Y-47842484D01*
X156941994Y-47566766D01*
X157057819Y-47274225D01*
X157058803Y-47270391D01*
X157058806Y-47270383D01*
X157135080Y-46973312D01*
X157136066Y-46969473D01*
X157175500Y-46657318D01*
X157175500Y-46342682D01*
X157136066Y-46030527D01*
X157077216Y-45801321D01*
X157058806Y-45729617D01*
X157058803Y-45729609D01*
X157057819Y-45725775D01*
X156941994Y-45433234D01*
X156790416Y-45157516D01*
X156677282Y-45001799D01*
X156607806Y-44906174D01*
X156607805Y-44906172D01*
X156605478Y-44902970D01*
X156390094Y-44673610D01*
X156147663Y-44473053D01*
X155882007Y-44304463D01*
X155878428Y-44302779D01*
X155878421Y-44302775D01*
X155600905Y-44172186D01*
X155600901Y-44172184D01*
X155597315Y-44170497D01*
X155298079Y-44073269D01*
X154989015Y-44014312D01*
X154895511Y-44008429D01*
X154755578Y-43999625D01*
X154755562Y-43999624D01*
X154753583Y-43999500D01*
X154596417Y-43999500D01*
X154594438Y-43999624D01*
X154594422Y-43999625D01*
X154454489Y-44008429D01*
X154360985Y-44014312D01*
X154051921Y-44073269D01*
X153752685Y-44170497D01*
X153749099Y-44172184D01*
X153749095Y-44172186D01*
X153471579Y-44302775D01*
X153471572Y-44302779D01*
X153467993Y-44304463D01*
X153202337Y-44473053D01*
X152959906Y-44673610D01*
X152744522Y-44902970D01*
X152742195Y-44906172D01*
X152742194Y-44906174D01*
X152672719Y-45001799D01*
X152559584Y-45157516D01*
X152408006Y-45433234D01*
X152292181Y-45725775D01*
X152291197Y-45729609D01*
X152291194Y-45729617D01*
X152272784Y-45801321D01*
X152213934Y-46030527D01*
X152174500Y-46342682D01*
X152174500Y-46657318D01*
X150000000Y-46657318D01*
X150000000Y-42126000D01*
X150020002Y-42057879D01*
X150073658Y-42011386D01*
X150126000Y-42000000D01*
X159374000Y-42000000D01*
X159442121Y-42020002D01*
G37*
%TD.AperFunction*%
%TD*%
%TA.AperFunction,Conductor*%
%TO.N,/SQUID_return_iii*%
G36*
X162442121Y-101520002D02*
G01*
X162488614Y-101573658D01*
X162500000Y-101626000D01*
X162500000Y-109874000D01*
X162479998Y-109942121D01*
X162426342Y-109988614D01*
X162374000Y-110000000D01*
X138626000Y-110000000D01*
X138557879Y-109979998D01*
X138511386Y-109926342D01*
X138500000Y-109874000D01*
X138500000Y-104125365D01*
X138520002Y-104057244D01*
X138573658Y-104010751D01*
X138625364Y-103999367D01*
X141827264Y-103983196D01*
X143321484Y-103975649D01*
X143389705Y-103995306D01*
X143436468Y-104048727D01*
X143448106Y-104103504D01*
X143427254Y-105518288D01*
X153002254Y-105568288D01*
X153000070Y-101626070D01*
X153020034Y-101557938D01*
X153073664Y-101511415D01*
X153126070Y-101500000D01*
X162374000Y-101500000D01*
X162442121Y-101520002D01*
G37*
%TD.AperFunction*%
%TD*%
M02*
