%TF.GenerationSoftware,KiCad,Pcbnew,(6.0.11-0)*%
%TF.CreationDate,2024-06-01T13:31:22-07:00*%
%TF.ProjectId,SC_SQUID_biasBoard,53435f53-5155-4494-945f-62696173426f,v3D.0*%
%TF.SameCoordinates,Original*%
%TF.FileFunction,OtherDrawing,Comment*%
%FSLAX46Y46*%
G04 Gerber Fmt 4.6, Leading zero omitted, Abs format (unit mm)*
G04 Created by KiCad (PCBNEW (6.0.11-0)) date 2024-06-01 13:31:22*
%MOMM*%
%LPD*%
G01*
G04 APERTURE LIST*
%TA.AperFunction,Profile*%
%ADD10C,0.100000*%
%TD*%
%ADD11C,0.150000*%
G04 APERTURE END LIST*
D10*
X175000000Y-41000000D02*
X135000000Y-41000000D01*
X135000000Y-41000000D02*
X135000000Y-151000000D01*
X135000000Y-151000000D02*
X175000000Y-151000000D01*
X175000000Y-151000000D02*
X175000000Y-41000000D01*
D11*
X135952380Y-28302380D02*
X135380952Y-28302380D01*
X135666666Y-28302380D02*
X135666666Y-27302380D01*
X135571428Y-27445238D01*
X135476190Y-27540476D01*
X135380952Y-27588095D01*
X136571428Y-27302380D02*
X136666666Y-27302380D01*
X136761904Y-27350000D01*
X136809523Y-27397619D01*
X136857142Y-27492857D01*
X136904761Y-27683333D01*
X136904761Y-27921428D01*
X136857142Y-28111904D01*
X136809523Y-28207142D01*
X136761904Y-28254761D01*
X136666666Y-28302380D01*
X136571428Y-28302380D01*
X136476190Y-28254761D01*
X136428571Y-28207142D01*
X136380952Y-28111904D01*
X136333333Y-27921428D01*
X136333333Y-27683333D01*
X136380952Y-27492857D01*
X136428571Y-27397619D01*
X136476190Y-27350000D01*
X136571428Y-27302380D01*
X137333333Y-28207142D02*
X137380952Y-28254761D01*
X137333333Y-28302380D01*
X137285714Y-28254761D01*
X137333333Y-28207142D01*
X137333333Y-28302380D01*
X138000000Y-27302380D02*
X138095238Y-27302380D01*
X138190476Y-27350000D01*
X138238095Y-27397619D01*
X138285714Y-27492857D01*
X138333333Y-27683333D01*
X138333333Y-27921428D01*
X138285714Y-28111904D01*
X138238095Y-28207142D01*
X138190476Y-28254761D01*
X138095238Y-28302380D01*
X138000000Y-28302380D01*
X137904761Y-28254761D01*
X137857142Y-28207142D01*
X137809523Y-28111904D01*
X137761904Y-27921428D01*
X137761904Y-27683333D01*
X137809523Y-27492857D01*
X137857142Y-27397619D01*
X137904761Y-27350000D01*
X138000000Y-27302380D01*
X138952380Y-27302380D02*
X139047619Y-27302380D01*
X139142857Y-27350000D01*
X139190476Y-27397619D01*
X139238095Y-27492857D01*
X139285714Y-27683333D01*
X139285714Y-27921428D01*
X139238095Y-28111904D01*
X139190476Y-28207142D01*
X139142857Y-28254761D01*
X139047619Y-28302380D01*
X138952380Y-28302380D01*
X138857142Y-28254761D01*
X138809523Y-28207142D01*
X138761904Y-28111904D01*
X138714285Y-27921428D01*
X138714285Y-27683333D01*
X138761904Y-27492857D01*
X138809523Y-27397619D01*
X138857142Y-27350000D01*
X138952380Y-27302380D01*
X139904761Y-27302380D02*
X140000000Y-27302380D01*
X140095238Y-27350000D01*
X140142857Y-27397619D01*
X140190476Y-27492857D01*
X140238095Y-27683333D01*
X140238095Y-27921428D01*
X140190476Y-28111904D01*
X140142857Y-28207142D01*
X140095238Y-28254761D01*
X140000000Y-28302380D01*
X139904761Y-28302380D01*
X139809523Y-28254761D01*
X139761904Y-28207142D01*
X139714285Y-28111904D01*
X139666666Y-27921428D01*
X139666666Y-27683333D01*
X139714285Y-27492857D01*
X139761904Y-27397619D01*
X139809523Y-27350000D01*
X139904761Y-27302380D01*
X140857142Y-27302380D02*
X140952380Y-27302380D01*
X141047619Y-27350000D01*
X141095238Y-27397619D01*
X141142857Y-27492857D01*
X141190476Y-27683333D01*
X141190476Y-27921428D01*
X141142857Y-28111904D01*
X141095238Y-28207142D01*
X141047619Y-28254761D01*
X140952380Y-28302380D01*
X140857142Y-28302380D01*
X140761904Y-28254761D01*
X140714285Y-28207142D01*
X140666666Y-28111904D01*
X140619047Y-27921428D01*
X140619047Y-27683333D01*
X140666666Y-27492857D01*
X140714285Y-27397619D01*
X140761904Y-27350000D01*
X140857142Y-27302380D01*
X142380952Y-28302380D02*
X142380952Y-27635714D01*
X142380952Y-27730952D02*
X142428571Y-27683333D01*
X142523809Y-27635714D01*
X142666666Y-27635714D01*
X142761904Y-27683333D01*
X142809523Y-27778571D01*
X142809523Y-28302380D01*
X142809523Y-27778571D02*
X142857142Y-27683333D01*
X142952380Y-27635714D01*
X143095238Y-27635714D01*
X143190476Y-27683333D01*
X143238095Y-27778571D01*
X143238095Y-28302380D01*
X143714285Y-28302380D02*
X143714285Y-27635714D01*
X143714285Y-27730952D02*
X143761904Y-27683333D01*
X143857142Y-27635714D01*
X144000000Y-27635714D01*
X144095238Y-27683333D01*
X144142857Y-27778571D01*
X144142857Y-28302380D01*
X144142857Y-27778571D02*
X144190476Y-27683333D01*
X144285714Y-27635714D01*
X144428571Y-27635714D01*
X144523809Y-27683333D01*
X144571428Y-27778571D01*
X144571428Y-28302380D01*
X145000000Y-41500000D02*
X145000000Y-28413580D01*
X135000000Y-41500000D02*
X135000000Y-28413580D01*
X145000000Y-29000000D02*
X135000000Y-29000000D01*
X145000000Y-29000000D02*
X135000000Y-29000000D01*
X145000000Y-29000000D02*
X143873496Y-28413579D01*
X145000000Y-29000000D02*
X143873496Y-29586421D01*
X135000000Y-29000000D02*
X136126504Y-29586421D01*
X135000000Y-29000000D02*
X136126504Y-28413579D01*
X165952380Y-28302380D02*
X165380952Y-28302380D01*
X165666666Y-28302380D02*
X165666666Y-27302380D01*
X165571428Y-27445238D01*
X165476190Y-27540476D01*
X165380952Y-27588095D01*
X166571428Y-27302380D02*
X166666666Y-27302380D01*
X166761904Y-27350000D01*
X166809523Y-27397619D01*
X166857142Y-27492857D01*
X166904761Y-27683333D01*
X166904761Y-27921428D01*
X166857142Y-28111904D01*
X166809523Y-28207142D01*
X166761904Y-28254761D01*
X166666666Y-28302380D01*
X166571428Y-28302380D01*
X166476190Y-28254761D01*
X166428571Y-28207142D01*
X166380952Y-28111904D01*
X166333333Y-27921428D01*
X166333333Y-27683333D01*
X166380952Y-27492857D01*
X166428571Y-27397619D01*
X166476190Y-27350000D01*
X166571428Y-27302380D01*
X167333333Y-28207142D02*
X167380952Y-28254761D01*
X167333333Y-28302380D01*
X167285714Y-28254761D01*
X167333333Y-28207142D01*
X167333333Y-28302380D01*
X168000000Y-27302380D02*
X168095238Y-27302380D01*
X168190476Y-27350000D01*
X168238095Y-27397619D01*
X168285714Y-27492857D01*
X168333333Y-27683333D01*
X168333333Y-27921428D01*
X168285714Y-28111904D01*
X168238095Y-28207142D01*
X168190476Y-28254761D01*
X168095238Y-28302380D01*
X168000000Y-28302380D01*
X167904761Y-28254761D01*
X167857142Y-28207142D01*
X167809523Y-28111904D01*
X167761904Y-27921428D01*
X167761904Y-27683333D01*
X167809523Y-27492857D01*
X167857142Y-27397619D01*
X167904761Y-27350000D01*
X168000000Y-27302380D01*
X168952380Y-27302380D02*
X169047619Y-27302380D01*
X169142857Y-27350000D01*
X169190476Y-27397619D01*
X169238095Y-27492857D01*
X169285714Y-27683333D01*
X169285714Y-27921428D01*
X169238095Y-28111904D01*
X169190476Y-28207142D01*
X169142857Y-28254761D01*
X169047619Y-28302380D01*
X168952380Y-28302380D01*
X168857142Y-28254761D01*
X168809523Y-28207142D01*
X168761904Y-28111904D01*
X168714285Y-27921428D01*
X168714285Y-27683333D01*
X168761904Y-27492857D01*
X168809523Y-27397619D01*
X168857142Y-27350000D01*
X168952380Y-27302380D01*
X169904761Y-27302380D02*
X170000000Y-27302380D01*
X170095238Y-27350000D01*
X170142857Y-27397619D01*
X170190476Y-27492857D01*
X170238095Y-27683333D01*
X170238095Y-27921428D01*
X170190476Y-28111904D01*
X170142857Y-28207142D01*
X170095238Y-28254761D01*
X170000000Y-28302380D01*
X169904761Y-28302380D01*
X169809523Y-28254761D01*
X169761904Y-28207142D01*
X169714285Y-28111904D01*
X169666666Y-27921428D01*
X169666666Y-27683333D01*
X169714285Y-27492857D01*
X169761904Y-27397619D01*
X169809523Y-27350000D01*
X169904761Y-27302380D01*
X170857142Y-27302380D02*
X170952380Y-27302380D01*
X171047619Y-27350000D01*
X171095238Y-27397619D01*
X171142857Y-27492857D01*
X171190476Y-27683333D01*
X171190476Y-27921428D01*
X171142857Y-28111904D01*
X171095238Y-28207142D01*
X171047619Y-28254761D01*
X170952380Y-28302380D01*
X170857142Y-28302380D01*
X170761904Y-28254761D01*
X170714285Y-28207142D01*
X170666666Y-28111904D01*
X170619047Y-27921428D01*
X170619047Y-27683333D01*
X170666666Y-27492857D01*
X170714285Y-27397619D01*
X170761904Y-27350000D01*
X170857142Y-27302380D01*
X172380952Y-28302380D02*
X172380952Y-27635714D01*
X172380952Y-27730952D02*
X172428571Y-27683333D01*
X172523809Y-27635714D01*
X172666666Y-27635714D01*
X172761904Y-27683333D01*
X172809523Y-27778571D01*
X172809523Y-28302380D01*
X172809523Y-27778571D02*
X172857142Y-27683333D01*
X172952380Y-27635714D01*
X173095238Y-27635714D01*
X173190476Y-27683333D01*
X173238095Y-27778571D01*
X173238095Y-28302380D01*
X173714285Y-28302380D02*
X173714285Y-27635714D01*
X173714285Y-27730952D02*
X173761904Y-27683333D01*
X173857142Y-27635714D01*
X174000000Y-27635714D01*
X174095238Y-27683333D01*
X174142857Y-27778571D01*
X174142857Y-28302380D01*
X174142857Y-27778571D02*
X174190476Y-27683333D01*
X174285714Y-27635714D01*
X174428571Y-27635714D01*
X174523809Y-27683333D01*
X174571428Y-27778571D01*
X174571428Y-28302380D01*
X165000000Y-41500000D02*
X165000000Y-28413580D01*
X175000000Y-41500000D02*
X175000000Y-28413580D01*
X165000000Y-29000000D02*
X175000000Y-29000000D01*
X165000000Y-29000000D02*
X175000000Y-29000000D01*
X165000000Y-29000000D02*
X166126504Y-29586421D01*
X165000000Y-29000000D02*
X166126504Y-28413579D01*
X175000000Y-29000000D02*
X173873496Y-28413579D01*
X175000000Y-29000000D02*
X173873496Y-29586421D01*
X210302380Y-96523809D02*
X210302380Y-96333333D01*
X210254761Y-96238095D01*
X210207142Y-96190476D01*
X210064285Y-96095238D01*
X209873809Y-96047619D01*
X209492857Y-96047619D01*
X209397619Y-96095238D01*
X209350000Y-96142857D01*
X209302380Y-96238095D01*
X209302380Y-96428571D01*
X209350000Y-96523809D01*
X209397619Y-96571428D01*
X209492857Y-96619047D01*
X209730952Y-96619047D01*
X209826190Y-96571428D01*
X209873809Y-96523809D01*
X209921428Y-96428571D01*
X209921428Y-96238095D01*
X209873809Y-96142857D01*
X209826190Y-96095238D01*
X209730952Y-96047619D01*
X209302380Y-95428571D02*
X209302380Y-95333333D01*
X209350000Y-95238095D01*
X209397619Y-95190476D01*
X209492857Y-95142857D01*
X209683333Y-95095238D01*
X209921428Y-95095238D01*
X210111904Y-95142857D01*
X210207142Y-95190476D01*
X210254761Y-95238095D01*
X210302380Y-95333333D01*
X210302380Y-95428571D01*
X210254761Y-95523809D01*
X210207142Y-95571428D01*
X210111904Y-95619047D01*
X209921428Y-95666666D01*
X209683333Y-95666666D01*
X209492857Y-95619047D01*
X209397619Y-95571428D01*
X209350000Y-95523809D01*
X209302380Y-95428571D01*
X210207142Y-94666666D02*
X210254761Y-94619047D01*
X210302380Y-94666666D01*
X210254761Y-94714285D01*
X210207142Y-94666666D01*
X210302380Y-94666666D01*
X209302380Y-94000000D02*
X209302380Y-93904761D01*
X209350000Y-93809523D01*
X209397619Y-93761904D01*
X209492857Y-93714285D01*
X209683333Y-93666666D01*
X209921428Y-93666666D01*
X210111904Y-93714285D01*
X210207142Y-93761904D01*
X210254761Y-93809523D01*
X210302380Y-93904761D01*
X210302380Y-94000000D01*
X210254761Y-94095238D01*
X210207142Y-94142857D01*
X210111904Y-94190476D01*
X209921428Y-94238095D01*
X209683333Y-94238095D01*
X209492857Y-94190476D01*
X209397619Y-94142857D01*
X209350000Y-94095238D01*
X209302380Y-94000000D01*
X209302380Y-93047619D02*
X209302380Y-92952380D01*
X209350000Y-92857142D01*
X209397619Y-92809523D01*
X209492857Y-92761904D01*
X209683333Y-92714285D01*
X209921428Y-92714285D01*
X210111904Y-92761904D01*
X210207142Y-92809523D01*
X210254761Y-92857142D01*
X210302380Y-92952380D01*
X210302380Y-93047619D01*
X210254761Y-93142857D01*
X210207142Y-93190476D01*
X210111904Y-93238095D01*
X209921428Y-93285714D01*
X209683333Y-93285714D01*
X209492857Y-93238095D01*
X209397619Y-93190476D01*
X209350000Y-93142857D01*
X209302380Y-93047619D01*
X209302380Y-92095238D02*
X209302380Y-92000000D01*
X209350000Y-91904761D01*
X209397619Y-91857142D01*
X209492857Y-91809523D01*
X209683333Y-91761904D01*
X209921428Y-91761904D01*
X210111904Y-91809523D01*
X210207142Y-91857142D01*
X210254761Y-91904761D01*
X210302380Y-92000000D01*
X210302380Y-92095238D01*
X210254761Y-92190476D01*
X210207142Y-92238095D01*
X210111904Y-92285714D01*
X209921428Y-92333333D01*
X209683333Y-92333333D01*
X209492857Y-92285714D01*
X209397619Y-92238095D01*
X209350000Y-92190476D01*
X209302380Y-92095238D01*
X209302380Y-91142857D02*
X209302380Y-91047619D01*
X209350000Y-90952380D01*
X209397619Y-90904761D01*
X209492857Y-90857142D01*
X209683333Y-90809523D01*
X209921428Y-90809523D01*
X210111904Y-90857142D01*
X210207142Y-90904761D01*
X210254761Y-90952380D01*
X210302380Y-91047619D01*
X210302380Y-91142857D01*
X210254761Y-91238095D01*
X210207142Y-91285714D01*
X210111904Y-91333333D01*
X209921428Y-91380952D01*
X209683333Y-91380952D01*
X209492857Y-91333333D01*
X209397619Y-91285714D01*
X209350000Y-91238095D01*
X209302380Y-91142857D01*
X210302380Y-89619047D02*
X209635714Y-89619047D01*
X209730952Y-89619047D02*
X209683333Y-89571428D01*
X209635714Y-89476190D01*
X209635714Y-89333333D01*
X209683333Y-89238095D01*
X209778571Y-89190476D01*
X210302380Y-89190476D01*
X209778571Y-89190476D02*
X209683333Y-89142857D01*
X209635714Y-89047619D01*
X209635714Y-88904761D01*
X209683333Y-88809523D01*
X209778571Y-88761904D01*
X210302380Y-88761904D01*
X210302380Y-88285714D02*
X209635714Y-88285714D01*
X209730952Y-88285714D02*
X209683333Y-88238095D01*
X209635714Y-88142857D01*
X209635714Y-88000000D01*
X209683333Y-87904761D01*
X209778571Y-87857142D01*
X210302380Y-87857142D01*
X209778571Y-87857142D02*
X209683333Y-87809523D01*
X209635714Y-87714285D01*
X209635714Y-87571428D01*
X209683333Y-87476190D01*
X209778571Y-87428571D01*
X210302380Y-87428571D01*
X166500000Y-47000000D02*
X211586420Y-47000000D01*
X166500000Y-137000000D02*
X211586420Y-137000000D01*
X211000000Y-47000000D02*
X211000000Y-137000000D01*
X211000000Y-47000000D02*
X211000000Y-137000000D01*
X211000000Y-47000000D02*
X210413579Y-48126504D01*
X211000000Y-47000000D02*
X211586421Y-48126504D01*
X211000000Y-137000000D02*
X211586421Y-135873496D01*
X211000000Y-137000000D02*
X210413579Y-135873496D01*
X150857142Y-164635714D02*
X150857142Y-165302380D01*
X150619047Y-164254761D02*
X150380952Y-164969047D01*
X151000000Y-164969047D01*
X151571428Y-164302380D02*
X151666666Y-164302380D01*
X151761904Y-164350000D01*
X151809523Y-164397619D01*
X151857142Y-164492857D01*
X151904761Y-164683333D01*
X151904761Y-164921428D01*
X151857142Y-165111904D01*
X151809523Y-165207142D01*
X151761904Y-165254761D01*
X151666666Y-165302380D01*
X151571428Y-165302380D01*
X151476190Y-165254761D01*
X151428571Y-165207142D01*
X151380952Y-165111904D01*
X151333333Y-164921428D01*
X151333333Y-164683333D01*
X151380952Y-164492857D01*
X151428571Y-164397619D01*
X151476190Y-164350000D01*
X151571428Y-164302380D01*
X152333333Y-165207142D02*
X152380952Y-165254761D01*
X152333333Y-165302380D01*
X152285714Y-165254761D01*
X152333333Y-165207142D01*
X152333333Y-165302380D01*
X153000000Y-164302380D02*
X153095238Y-164302380D01*
X153190476Y-164350000D01*
X153238095Y-164397619D01*
X153285714Y-164492857D01*
X153333333Y-164683333D01*
X153333333Y-164921428D01*
X153285714Y-165111904D01*
X153238095Y-165207142D01*
X153190476Y-165254761D01*
X153095238Y-165302380D01*
X153000000Y-165302380D01*
X152904761Y-165254761D01*
X152857142Y-165207142D01*
X152809523Y-165111904D01*
X152761904Y-164921428D01*
X152761904Y-164683333D01*
X152809523Y-164492857D01*
X152857142Y-164397619D01*
X152904761Y-164350000D01*
X153000000Y-164302380D01*
X153952380Y-164302380D02*
X154047619Y-164302380D01*
X154142857Y-164350000D01*
X154190476Y-164397619D01*
X154238095Y-164492857D01*
X154285714Y-164683333D01*
X154285714Y-164921428D01*
X154238095Y-165111904D01*
X154190476Y-165207142D01*
X154142857Y-165254761D01*
X154047619Y-165302380D01*
X153952380Y-165302380D01*
X153857142Y-165254761D01*
X153809523Y-165207142D01*
X153761904Y-165111904D01*
X153714285Y-164921428D01*
X153714285Y-164683333D01*
X153761904Y-164492857D01*
X153809523Y-164397619D01*
X153857142Y-164350000D01*
X153952380Y-164302380D01*
X154904761Y-164302380D02*
X155000000Y-164302380D01*
X155095238Y-164350000D01*
X155142857Y-164397619D01*
X155190476Y-164492857D01*
X155238095Y-164683333D01*
X155238095Y-164921428D01*
X155190476Y-165111904D01*
X155142857Y-165207142D01*
X155095238Y-165254761D01*
X155000000Y-165302380D01*
X154904761Y-165302380D01*
X154809523Y-165254761D01*
X154761904Y-165207142D01*
X154714285Y-165111904D01*
X154666666Y-164921428D01*
X154666666Y-164683333D01*
X154714285Y-164492857D01*
X154761904Y-164397619D01*
X154809523Y-164350000D01*
X154904761Y-164302380D01*
X155857142Y-164302380D02*
X155952380Y-164302380D01*
X156047619Y-164350000D01*
X156095238Y-164397619D01*
X156142857Y-164492857D01*
X156190476Y-164683333D01*
X156190476Y-164921428D01*
X156142857Y-165111904D01*
X156095238Y-165207142D01*
X156047619Y-165254761D01*
X155952380Y-165302380D01*
X155857142Y-165302380D01*
X155761904Y-165254761D01*
X155714285Y-165207142D01*
X155666666Y-165111904D01*
X155619047Y-164921428D01*
X155619047Y-164683333D01*
X155666666Y-164492857D01*
X155714285Y-164397619D01*
X155761904Y-164350000D01*
X155857142Y-164302380D01*
X157380952Y-165302380D02*
X157380952Y-164635714D01*
X157380952Y-164730952D02*
X157428571Y-164683333D01*
X157523809Y-164635714D01*
X157666666Y-164635714D01*
X157761904Y-164683333D01*
X157809523Y-164778571D01*
X157809523Y-165302380D01*
X157809523Y-164778571D02*
X157857142Y-164683333D01*
X157952380Y-164635714D01*
X158095238Y-164635714D01*
X158190476Y-164683333D01*
X158238095Y-164778571D01*
X158238095Y-165302380D01*
X158714285Y-165302380D02*
X158714285Y-164635714D01*
X158714285Y-164730952D02*
X158761904Y-164683333D01*
X158857142Y-164635714D01*
X159000000Y-164635714D01*
X159095238Y-164683333D01*
X159142857Y-164778571D01*
X159142857Y-165302380D01*
X159142857Y-164778571D02*
X159190476Y-164683333D01*
X159285714Y-164635714D01*
X159428571Y-164635714D01*
X159523809Y-164683333D01*
X159571428Y-164778571D01*
X159571428Y-165302380D01*
X175000000Y-151500000D02*
X175000000Y-166586420D01*
X135000000Y-151500000D02*
X135000000Y-166586420D01*
X175000000Y-166000000D02*
X135000000Y-166000000D01*
X175000000Y-166000000D02*
X135000000Y-166000000D01*
X175000000Y-166000000D02*
X173873496Y-165413579D01*
X175000000Y-166000000D02*
X173873496Y-166586421D01*
X135000000Y-166000000D02*
X136126504Y-166586421D01*
X135000000Y-166000000D02*
X136126504Y-165413579D01*
X150380952Y-27397619D02*
X150428571Y-27350000D01*
X150523809Y-27302380D01*
X150761904Y-27302380D01*
X150857142Y-27350000D01*
X150904761Y-27397619D01*
X150952380Y-27492857D01*
X150952380Y-27588095D01*
X150904761Y-27730952D01*
X150333333Y-28302380D01*
X150952380Y-28302380D01*
X151571428Y-27302380D02*
X151666666Y-27302380D01*
X151761904Y-27350000D01*
X151809523Y-27397619D01*
X151857142Y-27492857D01*
X151904761Y-27683333D01*
X151904761Y-27921428D01*
X151857142Y-28111904D01*
X151809523Y-28207142D01*
X151761904Y-28254761D01*
X151666666Y-28302380D01*
X151571428Y-28302380D01*
X151476190Y-28254761D01*
X151428571Y-28207142D01*
X151380952Y-28111904D01*
X151333333Y-27921428D01*
X151333333Y-27683333D01*
X151380952Y-27492857D01*
X151428571Y-27397619D01*
X151476190Y-27350000D01*
X151571428Y-27302380D01*
X152333333Y-28207142D02*
X152380952Y-28254761D01*
X152333333Y-28302380D01*
X152285714Y-28254761D01*
X152333333Y-28207142D01*
X152333333Y-28302380D01*
X153000000Y-27302380D02*
X153095238Y-27302380D01*
X153190476Y-27350000D01*
X153238095Y-27397619D01*
X153285714Y-27492857D01*
X153333333Y-27683333D01*
X153333333Y-27921428D01*
X153285714Y-28111904D01*
X153238095Y-28207142D01*
X153190476Y-28254761D01*
X153095238Y-28302380D01*
X153000000Y-28302380D01*
X152904761Y-28254761D01*
X152857142Y-28207142D01*
X152809523Y-28111904D01*
X152761904Y-27921428D01*
X152761904Y-27683333D01*
X152809523Y-27492857D01*
X152857142Y-27397619D01*
X152904761Y-27350000D01*
X153000000Y-27302380D01*
X153952380Y-27302380D02*
X154047619Y-27302380D01*
X154142857Y-27350000D01*
X154190476Y-27397619D01*
X154238095Y-27492857D01*
X154285714Y-27683333D01*
X154285714Y-27921428D01*
X154238095Y-28111904D01*
X154190476Y-28207142D01*
X154142857Y-28254761D01*
X154047619Y-28302380D01*
X153952380Y-28302380D01*
X153857142Y-28254761D01*
X153809523Y-28207142D01*
X153761904Y-28111904D01*
X153714285Y-27921428D01*
X153714285Y-27683333D01*
X153761904Y-27492857D01*
X153809523Y-27397619D01*
X153857142Y-27350000D01*
X153952380Y-27302380D01*
X154904761Y-27302380D02*
X155000000Y-27302380D01*
X155095238Y-27350000D01*
X155142857Y-27397619D01*
X155190476Y-27492857D01*
X155238095Y-27683333D01*
X155238095Y-27921428D01*
X155190476Y-28111904D01*
X155142857Y-28207142D01*
X155095238Y-28254761D01*
X155000000Y-28302380D01*
X154904761Y-28302380D01*
X154809523Y-28254761D01*
X154761904Y-28207142D01*
X154714285Y-28111904D01*
X154666666Y-27921428D01*
X154666666Y-27683333D01*
X154714285Y-27492857D01*
X154761904Y-27397619D01*
X154809523Y-27350000D01*
X154904761Y-27302380D01*
X155857142Y-27302380D02*
X155952380Y-27302380D01*
X156047619Y-27350000D01*
X156095238Y-27397619D01*
X156142857Y-27492857D01*
X156190476Y-27683333D01*
X156190476Y-27921428D01*
X156142857Y-28111904D01*
X156095238Y-28207142D01*
X156047619Y-28254761D01*
X155952380Y-28302380D01*
X155857142Y-28302380D01*
X155761904Y-28254761D01*
X155714285Y-28207142D01*
X155666666Y-28111904D01*
X155619047Y-27921428D01*
X155619047Y-27683333D01*
X155666666Y-27492857D01*
X155714285Y-27397619D01*
X155761904Y-27350000D01*
X155857142Y-27302380D01*
X157380952Y-28302380D02*
X157380952Y-27635714D01*
X157380952Y-27730952D02*
X157428571Y-27683333D01*
X157523809Y-27635714D01*
X157666666Y-27635714D01*
X157761904Y-27683333D01*
X157809523Y-27778571D01*
X157809523Y-28302380D01*
X157809523Y-27778571D02*
X157857142Y-27683333D01*
X157952380Y-27635714D01*
X158095238Y-27635714D01*
X158190476Y-27683333D01*
X158238095Y-27778571D01*
X158238095Y-28302380D01*
X158714285Y-28302380D02*
X158714285Y-27635714D01*
X158714285Y-27730952D02*
X158761904Y-27683333D01*
X158857142Y-27635714D01*
X159000000Y-27635714D01*
X159095238Y-27683333D01*
X159142857Y-27778571D01*
X159142857Y-28302380D01*
X159142857Y-27778571D02*
X159190476Y-27683333D01*
X159285714Y-27635714D01*
X159428571Y-27635714D01*
X159523809Y-27683333D01*
X159571428Y-27778571D01*
X159571428Y-28302380D01*
X165000000Y-36500000D02*
X165000000Y-28413580D01*
X145000000Y-36500000D02*
X145000000Y-28413580D01*
X165000000Y-29000000D02*
X145000000Y-29000000D01*
X165000000Y-29000000D02*
X145000000Y-29000000D01*
X165000000Y-29000000D02*
X163873496Y-28413579D01*
X165000000Y-29000000D02*
X163873496Y-29586421D01*
X145000000Y-29000000D02*
X146126504Y-29586421D01*
X145000000Y-29000000D02*
X146126504Y-28413579D01*
X184302380Y-100523809D02*
X184302380Y-101095238D01*
X184302380Y-100809523D02*
X183302380Y-100809523D01*
X183445238Y-100904761D01*
X183540476Y-101000000D01*
X183588095Y-101095238D01*
X184302380Y-99571428D02*
X184302380Y-100142857D01*
X184302380Y-99857142D02*
X183302380Y-99857142D01*
X183445238Y-99952380D01*
X183540476Y-100047619D01*
X183588095Y-100142857D01*
X183302380Y-98952380D02*
X183302380Y-98857142D01*
X183350000Y-98761904D01*
X183397619Y-98714285D01*
X183492857Y-98666666D01*
X183683333Y-98619047D01*
X183921428Y-98619047D01*
X184111904Y-98666666D01*
X184207142Y-98714285D01*
X184254761Y-98761904D01*
X184302380Y-98857142D01*
X184302380Y-98952380D01*
X184254761Y-99047619D01*
X184207142Y-99095238D01*
X184111904Y-99142857D01*
X183921428Y-99190476D01*
X183683333Y-99190476D01*
X183492857Y-99142857D01*
X183397619Y-99095238D01*
X183350000Y-99047619D01*
X183302380Y-98952380D01*
X184207142Y-98190476D02*
X184254761Y-98142857D01*
X184302380Y-98190476D01*
X184254761Y-98238095D01*
X184207142Y-98190476D01*
X184302380Y-98190476D01*
X183302380Y-97523809D02*
X183302380Y-97428571D01*
X183350000Y-97333333D01*
X183397619Y-97285714D01*
X183492857Y-97238095D01*
X183683333Y-97190476D01*
X183921428Y-97190476D01*
X184111904Y-97238095D01*
X184207142Y-97285714D01*
X184254761Y-97333333D01*
X184302380Y-97428571D01*
X184302380Y-97523809D01*
X184254761Y-97619047D01*
X184207142Y-97666666D01*
X184111904Y-97714285D01*
X183921428Y-97761904D01*
X183683333Y-97761904D01*
X183492857Y-97714285D01*
X183397619Y-97666666D01*
X183350000Y-97619047D01*
X183302380Y-97523809D01*
X183302380Y-96571428D02*
X183302380Y-96476190D01*
X183350000Y-96380952D01*
X183397619Y-96333333D01*
X183492857Y-96285714D01*
X183683333Y-96238095D01*
X183921428Y-96238095D01*
X184111904Y-96285714D01*
X184207142Y-96333333D01*
X184254761Y-96380952D01*
X184302380Y-96476190D01*
X184302380Y-96571428D01*
X184254761Y-96666666D01*
X184207142Y-96714285D01*
X184111904Y-96761904D01*
X183921428Y-96809523D01*
X183683333Y-96809523D01*
X183492857Y-96761904D01*
X183397619Y-96714285D01*
X183350000Y-96666666D01*
X183302380Y-96571428D01*
X183302380Y-95619047D02*
X183302380Y-95523809D01*
X183350000Y-95428571D01*
X183397619Y-95380952D01*
X183492857Y-95333333D01*
X183683333Y-95285714D01*
X183921428Y-95285714D01*
X184111904Y-95333333D01*
X184207142Y-95380952D01*
X184254761Y-95428571D01*
X184302380Y-95523809D01*
X184302380Y-95619047D01*
X184254761Y-95714285D01*
X184207142Y-95761904D01*
X184111904Y-95809523D01*
X183921428Y-95857142D01*
X183683333Y-95857142D01*
X183492857Y-95809523D01*
X183397619Y-95761904D01*
X183350000Y-95714285D01*
X183302380Y-95619047D01*
X183302380Y-94666666D02*
X183302380Y-94571428D01*
X183350000Y-94476190D01*
X183397619Y-94428571D01*
X183492857Y-94380952D01*
X183683333Y-94333333D01*
X183921428Y-94333333D01*
X184111904Y-94380952D01*
X184207142Y-94428571D01*
X184254761Y-94476190D01*
X184302380Y-94571428D01*
X184302380Y-94666666D01*
X184254761Y-94761904D01*
X184207142Y-94809523D01*
X184111904Y-94857142D01*
X183921428Y-94904761D01*
X183683333Y-94904761D01*
X183492857Y-94857142D01*
X183397619Y-94809523D01*
X183350000Y-94761904D01*
X183302380Y-94666666D01*
X184302380Y-93142857D02*
X183635714Y-93142857D01*
X183730952Y-93142857D02*
X183683333Y-93095238D01*
X183635714Y-93000000D01*
X183635714Y-92857142D01*
X183683333Y-92761904D01*
X183778571Y-92714285D01*
X184302380Y-92714285D01*
X183778571Y-92714285D02*
X183683333Y-92666666D01*
X183635714Y-92571428D01*
X183635714Y-92428571D01*
X183683333Y-92333333D01*
X183778571Y-92285714D01*
X184302380Y-92285714D01*
X184302380Y-91809523D02*
X183635714Y-91809523D01*
X183730952Y-91809523D02*
X183683333Y-91761904D01*
X183635714Y-91666666D01*
X183635714Y-91523809D01*
X183683333Y-91428571D01*
X183778571Y-91380952D01*
X184302380Y-91380952D01*
X183778571Y-91380952D02*
X183683333Y-91333333D01*
X183635714Y-91238095D01*
X183635714Y-91095238D01*
X183683333Y-91000000D01*
X183778571Y-90952380D01*
X184302380Y-90952380D01*
X175500000Y-151000000D02*
X185586420Y-151000000D01*
X175500000Y-41000000D02*
X185586420Y-41000000D01*
X185000000Y-151000000D02*
X185000000Y-41000000D01*
X185000000Y-151000000D02*
X185000000Y-41000000D01*
X185000000Y-151000000D02*
X185586421Y-149873496D01*
X185000000Y-151000000D02*
X184413579Y-149873496D01*
X185000000Y-41000000D02*
X184413579Y-42126504D01*
X185000000Y-41000000D02*
X185586421Y-42126504D01*
M02*
