%TF.GenerationSoftware,KiCad,Pcbnew,(6.0.11-0)*%
%TF.CreationDate,2024-06-01T13:31:22-07:00*%
%TF.ProjectId,SC_SQUID_biasBoard,53435f53-5155-4494-945f-62696173426f,v3D.0*%
%TF.SameCoordinates,Original*%
%TF.FileFunction,Legend,Top*%
%TF.FilePolarity,Positive*%
%FSLAX46Y46*%
G04 Gerber Fmt 4.6, Leading zero omitted, Abs format (unit mm)*
G04 Created by KiCad (PCBNEW (6.0.11-0)) date 2024-06-01 13:31:22*
%MOMM*%
%LPD*%
G01*
G04 APERTURE LIST*
G04 Aperture macros list*
%AMRoundRect*
0 Rectangle with rounded corners*
0 $1 Rounding radius*
0 $2 $3 $4 $5 $6 $7 $8 $9 X,Y pos of 4 corners*
0 Add a 4 corners polygon primitive as box body*
4,1,4,$2,$3,$4,$5,$6,$7,$8,$9,$2,$3,0*
0 Add four circle primitives for the rounded corners*
1,1,$1+$1,$2,$3*
1,1,$1+$1,$4,$5*
1,1,$1+$1,$6,$7*
1,1,$1+$1,$8,$9*
0 Add four rect primitives between the rounded corners*
20,1,$1+$1,$2,$3,$4,$5,0*
20,1,$1+$1,$4,$5,$6,$7,0*
20,1,$1+$1,$6,$7,$8,$9,0*
20,1,$1+$1,$8,$9,$2,$3,0*%
G04 Aperture macros list end*
%ADD10C,0.150000*%
%TA.AperFunction,Profile*%
%ADD11C,0.100000*%
%TD*%
%ADD12C,0.101600*%
%ADD13C,0.127000*%
%ADD14C,0.304800*%
%ADD15C,0.088900*%
%ADD16C,0.152400*%
%ADD17C,0.177800*%
%ADD18C,0.000000*%
%ADD19RoundRect,0.100000X-1.900000X-0.900000X1.900000X-0.900000X1.900000X0.900000X-1.900000X0.900000X0*%
%ADD20R,4.000000X2.500000*%
%ADD21C,8.500000*%
%ADD22C,4.500000*%
%ADD23C,3.200000*%
%ADD24R,2.540000X2.540000*%
%ADD25R,1.700000X1.700000*%
%ADD26O,1.700000X1.700000*%
%ADD27RoundRect,0.165000X1.685000X-0.660000X1.685000X0.660000X-1.685000X0.660000X-1.685000X-0.660000X0*%
%ADD28RoundRect,0.571500X-0.571500X-4.128500X0.571500X-4.128500X0.571500X4.128500X-0.571500X4.128500X0*%
%ADD29RoundRect,0.571500X0.571500X4.128500X-0.571500X4.128500X-0.571500X-4.128500X0.571500X-4.128500X0*%
%ADD30C,6.000000*%
G04 APERTURE END LIST*
D10*
X173500000Y-133450000D02*
X173500000Y-139500000D01*
X152000000Y-148950000D02*
X136500000Y-148950000D01*
X173500000Y-42450000D02*
X173500000Y-50000000D01*
X136500000Y-42450000D02*
X148500000Y-42450000D01*
X160500000Y-42500000D02*
X173500000Y-42450000D01*
X136500000Y-148950000D02*
X136500000Y-42450000D01*
X168000000Y-148950000D02*
X161000000Y-148950000D01*
D11*
X175000000Y-41000000D02*
X135000000Y-41000000D01*
X135000000Y-41000000D02*
X135000000Y-151000000D01*
X135000000Y-151000000D02*
X175000000Y-151000000D01*
X175000000Y-151000000D02*
X175000000Y-41000000D01*
D12*
X144726086Y-128657769D02*
X144302753Y-128657769D01*
X144363229Y-128657769D02*
X144332991Y-128627531D01*
X144302753Y-128567055D01*
X144302753Y-128476340D01*
X144332991Y-128415864D01*
X144393467Y-128385626D01*
X144726086Y-128385626D01*
X144393467Y-128385626D02*
X144332991Y-128355388D01*
X144302753Y-128294912D01*
X144302753Y-128204198D01*
X144332991Y-128143721D01*
X144393467Y-128113483D01*
X144726086Y-128113483D01*
X144091086Y-127690150D02*
X144091086Y-127569198D01*
X144121325Y-127508721D01*
X144181801Y-127448245D01*
X144302753Y-127418007D01*
X144514420Y-127418007D01*
X144635372Y-127448245D01*
X144695848Y-127508721D01*
X144726086Y-127569198D01*
X144726086Y-127690150D01*
X144695848Y-127750626D01*
X144635372Y-127811102D01*
X144514420Y-127841340D01*
X144302753Y-127841340D01*
X144181801Y-127811102D01*
X144121325Y-127750626D01*
X144091086Y-127690150D01*
X144726086Y-127145864D02*
X144091086Y-127145864D01*
X144726086Y-126873721D02*
X144393467Y-126873721D01*
X144332991Y-126903960D01*
X144302753Y-126964436D01*
X144302753Y-127055150D01*
X144332991Y-127115626D01*
X144363229Y-127145864D01*
X144726086Y-126571340D02*
X144302753Y-126571340D01*
X144363229Y-126571340D02*
X144332991Y-126541102D01*
X144302753Y-126480626D01*
X144302753Y-126389912D01*
X144332991Y-126329436D01*
X144393467Y-126299198D01*
X144726086Y-126299198D01*
X144393467Y-126299198D02*
X144332991Y-126268960D01*
X144302753Y-126208483D01*
X144302753Y-126117769D01*
X144332991Y-126057293D01*
X144393467Y-126027055D01*
X144726086Y-126027055D01*
X145748436Y-128657769D02*
X145113436Y-128657769D01*
X145355341Y-128657769D02*
X145325103Y-128597293D01*
X145325103Y-128476340D01*
X145355341Y-128415864D01*
X145385579Y-128385626D01*
X145446055Y-128355388D01*
X145627484Y-128355388D01*
X145687960Y-128385626D01*
X145718198Y-128415864D01*
X145748436Y-128476340D01*
X145748436Y-128597293D01*
X145718198Y-128657769D01*
X145748436Y-128083245D02*
X145325103Y-128083245D01*
X145113436Y-128083245D02*
X145143675Y-128113483D01*
X145173913Y-128083245D01*
X145143675Y-128053007D01*
X145113436Y-128083245D01*
X145173913Y-128083245D01*
X145748436Y-127508721D02*
X145415817Y-127508721D01*
X145355341Y-127538960D01*
X145325103Y-127599436D01*
X145325103Y-127720388D01*
X145355341Y-127780864D01*
X145718198Y-127508721D02*
X145748436Y-127569198D01*
X145748436Y-127720388D01*
X145718198Y-127780864D01*
X145657722Y-127811102D01*
X145597246Y-127811102D01*
X145536770Y-127780864D01*
X145506532Y-127720388D01*
X145506532Y-127569198D01*
X145476294Y-127508721D01*
X145718198Y-127236579D02*
X145748436Y-127176102D01*
X145748436Y-127055150D01*
X145718198Y-126994674D01*
X145657722Y-126964436D01*
X145627484Y-126964436D01*
X145567008Y-126994674D01*
X145536770Y-127055150D01*
X145536770Y-127145864D01*
X145506532Y-127206340D01*
X145446055Y-127236579D01*
X145415817Y-127236579D01*
X145355341Y-127206340D01*
X145325103Y-127145864D01*
X145325103Y-127055150D01*
X145355341Y-126994674D01*
X145748436Y-125845626D02*
X145446055Y-126057293D01*
X145748436Y-126208483D02*
X145113436Y-126208483D01*
X145113436Y-125966579D01*
X145143675Y-125906102D01*
X145173913Y-125875864D01*
X145234389Y-125845626D01*
X145325103Y-125845626D01*
X145385579Y-125875864D01*
X145415817Y-125906102D01*
X145446055Y-125966579D01*
X145446055Y-126208483D01*
D13*
X137736764Y-144308428D02*
X137841085Y-144344714D01*
X138022514Y-144344714D01*
X138099621Y-144308428D01*
X138140442Y-144272142D01*
X138185800Y-144199571D01*
X138194871Y-144127000D01*
X138167657Y-144054428D01*
X138135907Y-144018142D01*
X138067871Y-143981857D01*
X137927264Y-143945571D01*
X137859228Y-143909285D01*
X137827478Y-143873000D01*
X137800264Y-143800428D01*
X137809335Y-143727857D01*
X137854692Y-143655285D01*
X137895514Y-143619000D01*
X137972621Y-143582714D01*
X138154050Y-143582714D01*
X138258371Y-143619000D01*
X138938728Y-144272142D02*
X138897907Y-144308428D01*
X138784514Y-144344714D01*
X138711942Y-144344714D01*
X138607621Y-144308428D01*
X138544121Y-144235857D01*
X138516907Y-144163285D01*
X138498764Y-144018142D01*
X138512371Y-143909285D01*
X138566800Y-143764142D01*
X138612157Y-143691571D01*
X138693800Y-143619000D01*
X138807192Y-143582714D01*
X138879764Y-143582714D01*
X138984085Y-143619000D01*
X139015835Y-143655285D01*
X140226871Y-143836714D02*
X140163371Y-144344714D01*
X140081728Y-143546428D02*
X139832264Y-144090714D01*
X140303978Y-144090714D01*
X141007014Y-144272142D02*
X140966192Y-144308428D01*
X140852800Y-144344714D01*
X140780228Y-144344714D01*
X140675907Y-144308428D01*
X140612407Y-144235857D01*
X140585192Y-144163285D01*
X140567050Y-144018142D01*
X140580657Y-143909285D01*
X140635085Y-143764142D01*
X140680442Y-143691571D01*
X140762085Y-143619000D01*
X140875478Y-143582714D01*
X140948050Y-143582714D01*
X141052371Y-143619000D01*
X141084121Y-143655285D01*
X141324514Y-144344714D02*
X141419764Y-143582714D01*
X141651085Y-144344714D02*
X141700978Y-143945571D01*
X141673764Y-143873000D01*
X141605728Y-143836714D01*
X141496871Y-143836714D01*
X141419764Y-143873000D01*
X141378942Y-143909285D01*
X142562764Y-144308428D02*
X142667085Y-144344714D01*
X142848514Y-144344714D01*
X142925621Y-144308428D01*
X142966442Y-144272142D01*
X143011800Y-144199571D01*
X143020871Y-144127000D01*
X142993657Y-144054428D01*
X142961907Y-144018142D01*
X142893871Y-143981857D01*
X142753264Y-143945571D01*
X142685228Y-143909285D01*
X142653478Y-143873000D01*
X142626264Y-143800428D01*
X142635335Y-143727857D01*
X142680692Y-143655285D01*
X142721514Y-143619000D01*
X142798621Y-143582714D01*
X142980050Y-143582714D01*
X143084371Y-143619000D01*
X143819157Y-144417285D02*
X143751121Y-144381000D01*
X143687621Y-144308428D01*
X143592371Y-144199571D01*
X143524335Y-144163285D01*
X143451764Y-144163285D01*
X143465371Y-144344714D02*
X143397335Y-144308428D01*
X143333835Y-144235857D01*
X143315692Y-144090714D01*
X143347442Y-143836714D01*
X143401871Y-143691571D01*
X143483514Y-143619000D01*
X143560621Y-143582714D01*
X143705764Y-143582714D01*
X143773800Y-143619000D01*
X143837300Y-143691571D01*
X143855442Y-143836714D01*
X143823692Y-144090714D01*
X143769264Y-144235857D01*
X143687621Y-144308428D01*
X143610514Y-144344714D01*
X143465371Y-144344714D01*
X144213764Y-143582714D02*
X144136657Y-144199571D01*
X144163871Y-144272142D01*
X144195621Y-144308428D01*
X144263657Y-144344714D01*
X144408800Y-144344714D01*
X144485907Y-144308428D01*
X144526728Y-144272142D01*
X144572085Y-144199571D01*
X144649192Y-143582714D01*
X144916800Y-144344714D02*
X145012050Y-143582714D01*
X145279657Y-144344714D02*
X145374907Y-143582714D01*
X145556335Y-143582714D01*
X145660657Y-143619000D01*
X145724157Y-143691571D01*
X145751371Y-143764142D01*
X145769514Y-143909285D01*
X145755907Y-144018142D01*
X145701478Y-144163285D01*
X145656121Y-144235857D01*
X145574478Y-144308428D01*
X145461085Y-144344714D01*
X145279657Y-144344714D01*
D14*
X139156834Y-88544285D02*
X139084262Y-88616857D01*
X138866548Y-88689428D01*
X138721405Y-88689428D01*
X138503691Y-88616857D01*
X138358548Y-88471714D01*
X138285977Y-88326571D01*
X138213405Y-88036285D01*
X138213405Y-87818571D01*
X138285977Y-87528285D01*
X138358548Y-87383142D01*
X138503691Y-87238000D01*
X138721405Y-87165428D01*
X138866548Y-87165428D01*
X139084262Y-87238000D01*
X139156834Y-87310571D01*
X139809977Y-88689428D02*
X139809977Y-87165428D01*
X140463120Y-88689428D02*
X140463120Y-87891142D01*
X140390548Y-87746000D01*
X140245405Y-87673428D01*
X140027691Y-87673428D01*
X139882548Y-87746000D01*
X139809977Y-87818571D01*
X141116262Y-87310571D02*
X141188834Y-87238000D01*
X141333977Y-87165428D01*
X141696834Y-87165428D01*
X141841977Y-87238000D01*
X141914548Y-87310571D01*
X141987120Y-87455714D01*
X141987120Y-87600857D01*
X141914548Y-87818571D01*
X141043691Y-88689428D01*
X141987120Y-88689428D01*
D15*
X144154546Y-51270190D02*
X144178737Y-51246000D01*
X144227118Y-51221809D01*
X144348070Y-51221809D01*
X144396451Y-51246000D01*
X144420642Y-51270190D01*
X144444832Y-51318571D01*
X144444832Y-51366952D01*
X144420642Y-51439523D01*
X144130356Y-51729809D01*
X144444832Y-51729809D01*
X144662546Y-51536285D02*
X145049594Y-51536285D01*
X145533404Y-51221809D02*
X145291499Y-51221809D01*
X145267308Y-51463714D01*
X145291499Y-51439523D01*
X145339880Y-51415333D01*
X145460832Y-51415333D01*
X145509213Y-51439523D01*
X145533404Y-51463714D01*
X145557594Y-51512095D01*
X145557594Y-51633047D01*
X145533404Y-51681428D01*
X145509213Y-51705619D01*
X145460832Y-51729809D01*
X145339880Y-51729809D01*
X145291499Y-51705619D01*
X145267308Y-51681428D01*
X145993023Y-51221809D02*
X145896261Y-51221809D01*
X145847880Y-51246000D01*
X145823689Y-51270190D01*
X145775308Y-51342761D01*
X145751118Y-51439523D01*
X145751118Y-51633047D01*
X145775308Y-51681428D01*
X145799499Y-51705619D01*
X145847880Y-51729809D01*
X145944642Y-51729809D01*
X145993023Y-51705619D01*
X146017213Y-51681428D01*
X146041404Y-51633047D01*
X146041404Y-51512095D01*
X146017213Y-51463714D01*
X145993023Y-51439523D01*
X145944642Y-51415333D01*
X145847880Y-51415333D01*
X145799499Y-51439523D01*
X145775308Y-51463714D01*
X145751118Y-51512095D01*
D14*
X139156834Y-65369285D02*
X139084262Y-65441857D01*
X138866548Y-65514428D01*
X138721405Y-65514428D01*
X138503691Y-65441857D01*
X138358548Y-65296714D01*
X138285977Y-65151571D01*
X138213405Y-64861285D01*
X138213405Y-64643571D01*
X138285977Y-64353285D01*
X138358548Y-64208142D01*
X138503691Y-64063000D01*
X138721405Y-63990428D01*
X138866548Y-63990428D01*
X139084262Y-64063000D01*
X139156834Y-64135571D01*
X139809977Y-65514428D02*
X139809977Y-63990428D01*
X140463120Y-65514428D02*
X140463120Y-64716142D01*
X140390548Y-64571000D01*
X140245405Y-64498428D01*
X140027691Y-64498428D01*
X139882548Y-64571000D01*
X139809977Y-64643571D01*
X141987120Y-65514428D02*
X141116262Y-65514428D01*
X141551691Y-65514428D02*
X141551691Y-63990428D01*
X141406548Y-64208142D01*
X141261405Y-64353285D01*
X141116262Y-64425857D01*
D13*
X168980121Y-49332714D02*
X169415550Y-49332714D01*
X169197835Y-50094714D02*
X169197835Y-49332714D01*
X169669550Y-49695571D02*
X169923550Y-49695571D01*
X170032407Y-50094714D02*
X169669550Y-50094714D01*
X169669550Y-49332714D01*
X170032407Y-49332714D01*
X170322692Y-50058428D02*
X170431550Y-50094714D01*
X170612978Y-50094714D01*
X170685550Y-50058428D01*
X170721835Y-50022142D01*
X170758121Y-49949571D01*
X170758121Y-49877000D01*
X170721835Y-49804428D01*
X170685550Y-49768142D01*
X170612978Y-49731857D01*
X170467835Y-49695571D01*
X170395264Y-49659285D01*
X170358978Y-49623000D01*
X170322692Y-49550428D01*
X170322692Y-49477857D01*
X170358978Y-49405285D01*
X170395264Y-49369000D01*
X170467835Y-49332714D01*
X170649264Y-49332714D01*
X170758121Y-49369000D01*
X171665264Y-50094714D02*
X171665264Y-49586714D01*
X171665264Y-49731857D02*
X171701550Y-49659285D01*
X171737835Y-49623000D01*
X171810407Y-49586714D01*
X171882978Y-49586714D01*
X172028121Y-49586714D02*
X172318407Y-49586714D01*
X172136978Y-49332714D02*
X172136978Y-49985857D01*
X172173264Y-50058428D01*
X172245835Y-50094714D01*
X172318407Y-50094714D01*
X172572407Y-49586714D02*
X172572407Y-50094714D01*
X172572407Y-49659285D02*
X172608692Y-49623000D01*
X172681264Y-49586714D01*
X172790121Y-49586714D01*
X172862692Y-49623000D01*
X172898978Y-49695571D01*
X172898978Y-50094714D01*
X155652692Y-76308428D02*
X155761550Y-76344714D01*
X155942978Y-76344714D01*
X156015550Y-76308428D01*
X156051835Y-76272142D01*
X156088121Y-76199571D01*
X156088121Y-76127000D01*
X156051835Y-76054428D01*
X156015550Y-76018142D01*
X155942978Y-75981857D01*
X155797835Y-75945571D01*
X155725264Y-75909285D01*
X155688978Y-75873000D01*
X155652692Y-75800428D01*
X155652692Y-75727857D01*
X155688978Y-75655285D01*
X155725264Y-75619000D01*
X155797835Y-75582714D01*
X155979264Y-75582714D01*
X156088121Y-75619000D01*
X156922692Y-76417285D02*
X156850121Y-76381000D01*
X156777550Y-76308428D01*
X156668692Y-76199571D01*
X156596121Y-76163285D01*
X156523550Y-76163285D01*
X156559835Y-76344714D02*
X156487264Y-76308428D01*
X156414692Y-76235857D01*
X156378407Y-76090714D01*
X156378407Y-75836714D01*
X156414692Y-75691571D01*
X156487264Y-75619000D01*
X156559835Y-75582714D01*
X156704978Y-75582714D01*
X156777550Y-75619000D01*
X156850121Y-75691571D01*
X156886407Y-75836714D01*
X156886407Y-76090714D01*
X156850121Y-76235857D01*
X156777550Y-76308428D01*
X156704978Y-76344714D01*
X156559835Y-76344714D01*
X157212978Y-75582714D02*
X157212978Y-76199571D01*
X157249264Y-76272142D01*
X157285550Y-76308428D01*
X157358121Y-76344714D01*
X157503264Y-76344714D01*
X157575835Y-76308428D01*
X157612121Y-76272142D01*
X157648407Y-76199571D01*
X157648407Y-75582714D01*
X158011264Y-76344714D02*
X158011264Y-75582714D01*
X158374121Y-76344714D02*
X158374121Y-75582714D01*
X158555550Y-75582714D01*
X158664407Y-75619000D01*
X158736978Y-75691571D01*
X158773264Y-75764142D01*
X158809550Y-75909285D01*
X158809550Y-76018142D01*
X158773264Y-76163285D01*
X158736978Y-76235857D01*
X158664407Y-76308428D01*
X158555550Y-76344714D01*
X158374121Y-76344714D01*
X159716692Y-76344714D02*
X159716692Y-75836714D01*
X159716692Y-75981857D02*
X159752978Y-75909285D01*
X159789264Y-75873000D01*
X159861835Y-75836714D01*
X159934407Y-75836714D01*
X160079550Y-75836714D02*
X160369835Y-75836714D01*
X160188407Y-75582714D02*
X160188407Y-76235857D01*
X160224692Y-76308428D01*
X160297264Y-76344714D01*
X160369835Y-76344714D01*
X160623835Y-75836714D02*
X160623835Y-76344714D01*
X160623835Y-75909285D02*
X160660121Y-75873000D01*
X160732692Y-75836714D01*
X160841550Y-75836714D01*
X160914121Y-75873000D01*
X160950407Y-75945571D01*
X160950407Y-76344714D01*
D16*
X138179631Y-142427428D02*
X138324774Y-142475809D01*
X138373155Y-142524190D01*
X138421536Y-142620952D01*
X138421536Y-142766095D01*
X138373155Y-142862857D01*
X138324774Y-142911238D01*
X138228012Y-142959619D01*
X137840964Y-142959619D01*
X137840964Y-141943619D01*
X138179631Y-141943619D01*
X138276393Y-141992000D01*
X138324774Y-142040380D01*
X138373155Y-142137142D01*
X138373155Y-142233904D01*
X138324774Y-142330666D01*
X138276393Y-142379047D01*
X138179631Y-142427428D01*
X137840964Y-142427428D01*
X138856964Y-142959619D02*
X138856964Y-142282285D01*
X138856964Y-141943619D02*
X138808583Y-141992000D01*
X138856964Y-142040380D01*
X138905345Y-141992000D01*
X138856964Y-141943619D01*
X138856964Y-142040380D01*
X139776202Y-142959619D02*
X139776202Y-142427428D01*
X139727821Y-142330666D01*
X139631060Y-142282285D01*
X139437536Y-142282285D01*
X139340774Y-142330666D01*
X139776202Y-142911238D02*
X139679440Y-142959619D01*
X139437536Y-142959619D01*
X139340774Y-142911238D01*
X139292393Y-142814476D01*
X139292393Y-142717714D01*
X139340774Y-142620952D01*
X139437536Y-142572571D01*
X139679440Y-142572571D01*
X139776202Y-142524190D01*
X140211631Y-142911238D02*
X140308393Y-142959619D01*
X140501917Y-142959619D01*
X140598679Y-142911238D01*
X140647060Y-142814476D01*
X140647060Y-142766095D01*
X140598679Y-142669333D01*
X140501917Y-142620952D01*
X140356774Y-142620952D01*
X140260012Y-142572571D01*
X140211631Y-142475809D01*
X140211631Y-142427428D01*
X140260012Y-142330666D01*
X140356774Y-142282285D01*
X140501917Y-142282285D01*
X140598679Y-142330666D01*
X141856583Y-142959619D02*
X141856583Y-141943619D01*
X141856583Y-142330666D02*
X141953345Y-142282285D01*
X142146869Y-142282285D01*
X142243631Y-142330666D01*
X142292012Y-142379047D01*
X142340393Y-142475809D01*
X142340393Y-142766095D01*
X142292012Y-142862857D01*
X142243631Y-142911238D01*
X142146869Y-142959619D01*
X141953345Y-142959619D01*
X141856583Y-142911238D01*
X142920964Y-142959619D02*
X142824202Y-142911238D01*
X142775821Y-142862857D01*
X142727440Y-142766095D01*
X142727440Y-142475809D01*
X142775821Y-142379047D01*
X142824202Y-142330666D01*
X142920964Y-142282285D01*
X143066107Y-142282285D01*
X143162869Y-142330666D01*
X143211250Y-142379047D01*
X143259631Y-142475809D01*
X143259631Y-142766095D01*
X143211250Y-142862857D01*
X143162869Y-142911238D01*
X143066107Y-142959619D01*
X142920964Y-142959619D01*
X144130488Y-142959619D02*
X144130488Y-142427428D01*
X144082107Y-142330666D01*
X143985345Y-142282285D01*
X143791821Y-142282285D01*
X143695060Y-142330666D01*
X144130488Y-142911238D02*
X144033726Y-142959619D01*
X143791821Y-142959619D01*
X143695060Y-142911238D01*
X143646679Y-142814476D01*
X143646679Y-142717714D01*
X143695060Y-142620952D01*
X143791821Y-142572571D01*
X144033726Y-142572571D01*
X144130488Y-142524190D01*
X144614298Y-142959619D02*
X144614298Y-142282285D01*
X144614298Y-142475809D02*
X144662679Y-142379047D01*
X144711060Y-142330666D01*
X144807821Y-142282285D01*
X144904583Y-142282285D01*
X145678679Y-142959619D02*
X145678679Y-141943619D01*
X145678679Y-142911238D02*
X145581917Y-142959619D01*
X145388393Y-142959619D01*
X145291631Y-142911238D01*
X145243250Y-142862857D01*
X145194869Y-142766095D01*
X145194869Y-142475809D01*
X145243250Y-142379047D01*
X145291631Y-142330666D01*
X145388393Y-142282285D01*
X145581917Y-142282285D01*
X145678679Y-142330666D01*
X146839821Y-142282285D02*
X147081726Y-142959619D01*
X147323631Y-142282285D01*
X147613917Y-141943619D02*
X148242869Y-141943619D01*
X147904202Y-142330666D01*
X148049345Y-142330666D01*
X148146107Y-142379047D01*
X148194488Y-142427428D01*
X148242869Y-142524190D01*
X148242869Y-142766095D01*
X148194488Y-142862857D01*
X148146107Y-142911238D01*
X148049345Y-142959619D01*
X147759060Y-142959619D01*
X147662298Y-142911238D01*
X147613917Y-142862857D01*
X148678298Y-142427428D02*
X149016964Y-142427428D01*
X149162107Y-142959619D02*
X148678298Y-142959619D01*
X148678298Y-141943619D01*
X149162107Y-141943619D01*
D12*
X137752004Y-147344714D02*
X137815504Y-146836714D01*
X137797361Y-146981857D02*
X137842718Y-146909285D01*
X137883540Y-146873000D01*
X137960647Y-146836714D01*
X138033218Y-146836714D01*
X138223718Y-147344714D02*
X138287218Y-146836714D01*
X138278147Y-146909285D02*
X138318968Y-146873000D01*
X138396075Y-146836714D01*
X138504932Y-146836714D01*
X138572968Y-146873000D01*
X138600182Y-146945571D01*
X138550290Y-147344714D01*
X138600182Y-146945571D02*
X138645540Y-146873000D01*
X138722647Y-146836714D01*
X138831504Y-146836714D01*
X138899540Y-146873000D01*
X138926754Y-146945571D01*
X138876861Y-147344714D01*
X139566290Y-147344714D02*
X139661540Y-146582714D01*
X139570825Y-147308428D02*
X139493718Y-147344714D01*
X139348575Y-147344714D01*
X139280540Y-147308428D01*
X139248790Y-147272142D01*
X139221575Y-147199571D01*
X139248790Y-146981857D01*
X139294147Y-146909285D01*
X139334968Y-146873000D01*
X139412075Y-146836714D01*
X139557218Y-146836714D01*
X139625254Y-146873000D01*
X140260254Y-147308428D02*
X140183147Y-147344714D01*
X140038004Y-147344714D01*
X139969968Y-147308428D01*
X139938218Y-147272142D01*
X139911004Y-147199571D01*
X139938218Y-146981857D01*
X139983575Y-146909285D01*
X140024397Y-146873000D01*
X140101504Y-146836714D01*
X140246647Y-146836714D01*
X140314682Y-146873000D01*
X140908861Y-147344714D02*
X140958754Y-146945571D01*
X140931540Y-146873000D01*
X140863504Y-146836714D01*
X140718361Y-146836714D01*
X140641254Y-146873000D01*
X140913397Y-147308428D02*
X140836290Y-147344714D01*
X140654861Y-147344714D01*
X140586825Y-147308428D01*
X140559611Y-147235857D01*
X140568682Y-147163285D01*
X140614040Y-147090714D01*
X140691147Y-147054428D01*
X140872575Y-147054428D01*
X140949682Y-147018142D01*
X141271718Y-147344714D02*
X141335218Y-146836714D01*
X141317075Y-146981857D02*
X141362432Y-146909285D01*
X141403254Y-146873000D01*
X141480361Y-146836714D01*
X141552932Y-146836714D01*
X141806932Y-146836714D02*
X141743432Y-147344714D01*
X141797861Y-146909285D02*
X141838682Y-146873000D01*
X141915790Y-146836714D01*
X142024647Y-146836714D01*
X142092682Y-146873000D01*
X142119897Y-146945571D01*
X142070004Y-147344714D01*
X142727682Y-147308428D02*
X142650575Y-147344714D01*
X142505432Y-147344714D01*
X142437397Y-147308428D01*
X142410182Y-147235857D01*
X142446468Y-146945571D01*
X142491825Y-146873000D01*
X142568932Y-146836714D01*
X142714075Y-146836714D01*
X142782111Y-146873000D01*
X142809325Y-146945571D01*
X142800254Y-147018142D01*
X142428325Y-147090714D01*
X143076932Y-146836714D02*
X143194861Y-147344714D01*
X143439790Y-146836714D02*
X143194861Y-147344714D01*
X143099611Y-147526142D01*
X143058790Y-147562428D01*
X142981682Y-147598714D01*
X144801086Y-60532769D02*
X144377753Y-60532769D01*
X144438229Y-60532769D02*
X144407991Y-60502531D01*
X144377753Y-60442055D01*
X144377753Y-60351340D01*
X144407991Y-60290864D01*
X144468467Y-60260626D01*
X144801086Y-60260626D01*
X144468467Y-60260626D02*
X144407991Y-60230388D01*
X144377753Y-60169912D01*
X144377753Y-60079198D01*
X144407991Y-60018721D01*
X144468467Y-59988483D01*
X144801086Y-59988483D01*
X144166086Y-59565150D02*
X144166086Y-59444198D01*
X144196325Y-59383721D01*
X144256801Y-59323245D01*
X144377753Y-59293007D01*
X144589420Y-59293007D01*
X144710372Y-59323245D01*
X144770848Y-59383721D01*
X144801086Y-59444198D01*
X144801086Y-59565150D01*
X144770848Y-59625626D01*
X144710372Y-59686102D01*
X144589420Y-59716340D01*
X144377753Y-59716340D01*
X144256801Y-59686102D01*
X144196325Y-59625626D01*
X144166086Y-59565150D01*
X144801086Y-59020864D02*
X144166086Y-59020864D01*
X144801086Y-58748721D02*
X144468467Y-58748721D01*
X144407991Y-58778960D01*
X144377753Y-58839436D01*
X144377753Y-58930150D01*
X144407991Y-58990626D01*
X144438229Y-59020864D01*
X144801086Y-58446340D02*
X144377753Y-58446340D01*
X144438229Y-58446340D02*
X144407991Y-58416102D01*
X144377753Y-58355626D01*
X144377753Y-58264912D01*
X144407991Y-58204436D01*
X144468467Y-58174198D01*
X144801086Y-58174198D01*
X144468467Y-58174198D02*
X144407991Y-58143960D01*
X144377753Y-58083483D01*
X144377753Y-57992769D01*
X144407991Y-57932293D01*
X144468467Y-57902055D01*
X144801086Y-57902055D01*
X145823436Y-60532769D02*
X145188436Y-60532769D01*
X145430341Y-60532769D02*
X145400103Y-60472293D01*
X145400103Y-60351340D01*
X145430341Y-60290864D01*
X145460579Y-60260626D01*
X145521055Y-60230388D01*
X145702484Y-60230388D01*
X145762960Y-60260626D01*
X145793198Y-60290864D01*
X145823436Y-60351340D01*
X145823436Y-60472293D01*
X145793198Y-60532769D01*
X145823436Y-59958245D02*
X145400103Y-59958245D01*
X145188436Y-59958245D02*
X145218675Y-59988483D01*
X145248913Y-59958245D01*
X145218675Y-59928007D01*
X145188436Y-59958245D01*
X145248913Y-59958245D01*
X145823436Y-59383721D02*
X145490817Y-59383721D01*
X145430341Y-59413960D01*
X145400103Y-59474436D01*
X145400103Y-59595388D01*
X145430341Y-59655864D01*
X145793198Y-59383721D02*
X145823436Y-59444198D01*
X145823436Y-59595388D01*
X145793198Y-59655864D01*
X145732722Y-59686102D01*
X145672246Y-59686102D01*
X145611770Y-59655864D01*
X145581532Y-59595388D01*
X145581532Y-59444198D01*
X145551294Y-59383721D01*
X145793198Y-59111579D02*
X145823436Y-59051102D01*
X145823436Y-58930150D01*
X145793198Y-58869674D01*
X145732722Y-58839436D01*
X145702484Y-58839436D01*
X145642008Y-58869674D01*
X145611770Y-58930150D01*
X145611770Y-59020864D01*
X145581532Y-59081340D01*
X145521055Y-59111579D01*
X145490817Y-59111579D01*
X145430341Y-59081340D01*
X145400103Y-59020864D01*
X145400103Y-58930150D01*
X145430341Y-58869674D01*
X145823436Y-57720626D02*
X145521055Y-57932293D01*
X145823436Y-58083483D02*
X145188436Y-58083483D01*
X145188436Y-57841579D01*
X145218675Y-57781102D01*
X145248913Y-57750864D01*
X145309389Y-57720626D01*
X145400103Y-57720626D01*
X145460579Y-57750864D01*
X145490817Y-57781102D01*
X145521055Y-57841579D01*
X145521055Y-58083483D01*
D14*
X139256834Y-112394285D02*
X139184262Y-112466857D01*
X138966548Y-112539428D01*
X138821405Y-112539428D01*
X138603691Y-112466857D01*
X138458548Y-112321714D01*
X138385977Y-112176571D01*
X138313405Y-111886285D01*
X138313405Y-111668571D01*
X138385977Y-111378285D01*
X138458548Y-111233142D01*
X138603691Y-111088000D01*
X138821405Y-111015428D01*
X138966548Y-111015428D01*
X139184262Y-111088000D01*
X139256834Y-111160571D01*
X139909977Y-112539428D02*
X139909977Y-111015428D01*
X140563120Y-112539428D02*
X140563120Y-111741142D01*
X140490548Y-111596000D01*
X140345405Y-111523428D01*
X140127691Y-111523428D01*
X139982548Y-111596000D01*
X139909977Y-111668571D01*
X141143691Y-111015428D02*
X142087120Y-111015428D01*
X141579120Y-111596000D01*
X141796834Y-111596000D01*
X141941977Y-111668571D01*
X142014548Y-111741142D01*
X142087120Y-111886285D01*
X142087120Y-112249142D01*
X142014548Y-112394285D01*
X141941977Y-112466857D01*
X141796834Y-112539428D01*
X141361405Y-112539428D01*
X141216262Y-112466857D01*
X141143691Y-112394285D01*
D15*
X169154546Y-136270190D02*
X169178737Y-136246000D01*
X169227118Y-136221809D01*
X169348070Y-136221809D01*
X169396451Y-136246000D01*
X169420642Y-136270190D01*
X169444832Y-136318571D01*
X169444832Y-136366952D01*
X169420642Y-136439523D01*
X169130356Y-136729809D01*
X169444832Y-136729809D01*
X169662546Y-136536285D02*
X170049594Y-136536285D01*
X170533404Y-136221809D02*
X170291499Y-136221809D01*
X170267308Y-136463714D01*
X170291499Y-136439523D01*
X170339880Y-136415333D01*
X170460832Y-136415333D01*
X170509213Y-136439523D01*
X170533404Y-136463714D01*
X170557594Y-136512095D01*
X170557594Y-136633047D01*
X170533404Y-136681428D01*
X170509213Y-136705619D01*
X170460832Y-136729809D01*
X170339880Y-136729809D01*
X170291499Y-136705619D01*
X170267308Y-136681428D01*
X170993023Y-136221809D02*
X170896261Y-136221809D01*
X170847880Y-136246000D01*
X170823689Y-136270190D01*
X170775308Y-136342761D01*
X170751118Y-136439523D01*
X170751118Y-136633047D01*
X170775308Y-136681428D01*
X170799499Y-136705619D01*
X170847880Y-136729809D01*
X170944642Y-136729809D01*
X170993023Y-136705619D01*
X171017213Y-136681428D01*
X171041404Y-136633047D01*
X171041404Y-136512095D01*
X171017213Y-136463714D01*
X170993023Y-136439523D01*
X170944642Y-136415333D01*
X170847880Y-136415333D01*
X170799499Y-136439523D01*
X170775308Y-136463714D01*
X170751118Y-136512095D01*
D12*
X144776086Y-81282769D02*
X144352753Y-81282769D01*
X144413229Y-81282769D02*
X144382991Y-81252531D01*
X144352753Y-81192055D01*
X144352753Y-81101340D01*
X144382991Y-81040864D01*
X144443467Y-81010626D01*
X144776086Y-81010626D01*
X144443467Y-81010626D02*
X144382991Y-80980388D01*
X144352753Y-80919912D01*
X144352753Y-80829198D01*
X144382991Y-80768721D01*
X144443467Y-80738483D01*
X144776086Y-80738483D01*
X144141086Y-80315150D02*
X144141086Y-80194198D01*
X144171325Y-80133721D01*
X144231801Y-80073245D01*
X144352753Y-80043007D01*
X144564420Y-80043007D01*
X144685372Y-80073245D01*
X144745848Y-80133721D01*
X144776086Y-80194198D01*
X144776086Y-80315150D01*
X144745848Y-80375626D01*
X144685372Y-80436102D01*
X144564420Y-80466340D01*
X144352753Y-80466340D01*
X144231801Y-80436102D01*
X144171325Y-80375626D01*
X144141086Y-80315150D01*
X144776086Y-79770864D02*
X144141086Y-79770864D01*
X144776086Y-79498721D02*
X144443467Y-79498721D01*
X144382991Y-79528960D01*
X144352753Y-79589436D01*
X144352753Y-79680150D01*
X144382991Y-79740626D01*
X144413229Y-79770864D01*
X144776086Y-79196340D02*
X144352753Y-79196340D01*
X144413229Y-79196340D02*
X144382991Y-79166102D01*
X144352753Y-79105626D01*
X144352753Y-79014912D01*
X144382991Y-78954436D01*
X144443467Y-78924198D01*
X144776086Y-78924198D01*
X144443467Y-78924198D02*
X144382991Y-78893960D01*
X144352753Y-78833483D01*
X144352753Y-78742769D01*
X144382991Y-78682293D01*
X144443467Y-78652055D01*
X144776086Y-78652055D01*
X145798436Y-81282769D02*
X145163436Y-81282769D01*
X145405341Y-81282769D02*
X145375103Y-81222293D01*
X145375103Y-81101340D01*
X145405341Y-81040864D01*
X145435579Y-81010626D01*
X145496055Y-80980388D01*
X145677484Y-80980388D01*
X145737960Y-81010626D01*
X145768198Y-81040864D01*
X145798436Y-81101340D01*
X145798436Y-81222293D01*
X145768198Y-81282769D01*
X145798436Y-80708245D02*
X145375103Y-80708245D01*
X145163436Y-80708245D02*
X145193675Y-80738483D01*
X145223913Y-80708245D01*
X145193675Y-80678007D01*
X145163436Y-80708245D01*
X145223913Y-80708245D01*
X145798436Y-80133721D02*
X145465817Y-80133721D01*
X145405341Y-80163960D01*
X145375103Y-80224436D01*
X145375103Y-80345388D01*
X145405341Y-80405864D01*
X145768198Y-80133721D02*
X145798436Y-80194198D01*
X145798436Y-80345388D01*
X145768198Y-80405864D01*
X145707722Y-80436102D01*
X145647246Y-80436102D01*
X145586770Y-80405864D01*
X145556532Y-80345388D01*
X145556532Y-80194198D01*
X145526294Y-80133721D01*
X145768198Y-79861579D02*
X145798436Y-79801102D01*
X145798436Y-79680150D01*
X145768198Y-79619674D01*
X145707722Y-79589436D01*
X145677484Y-79589436D01*
X145617008Y-79619674D01*
X145586770Y-79680150D01*
X145586770Y-79770864D01*
X145556532Y-79831340D01*
X145496055Y-79861579D01*
X145465817Y-79861579D01*
X145405341Y-79831340D01*
X145375103Y-79770864D01*
X145375103Y-79680150D01*
X145405341Y-79619674D01*
X145798436Y-78470626D02*
X145496055Y-78682293D01*
X145798436Y-78833483D02*
X145163436Y-78833483D01*
X145163436Y-78591579D01*
X145193675Y-78531102D01*
X145223913Y-78500864D01*
X145284389Y-78470626D01*
X145375103Y-78470626D01*
X145435579Y-78500864D01*
X145465817Y-78531102D01*
X145496055Y-78591579D01*
X145496055Y-78833483D01*
D17*
X148568619Y-48837668D02*
X148568619Y-48257096D01*
X149584619Y-48547382D02*
X148568619Y-48547382D01*
X149052428Y-47918430D02*
X149052428Y-47579763D01*
X149584619Y-47434620D02*
X149584619Y-47918430D01*
X148568619Y-47918430D01*
X148568619Y-47434620D01*
X149536238Y-47047572D02*
X149584619Y-46902430D01*
X149584619Y-46660525D01*
X149536238Y-46563763D01*
X149487857Y-46515382D01*
X149391095Y-46467001D01*
X149294333Y-46467001D01*
X149197571Y-46515382D01*
X149149190Y-46563763D01*
X149100809Y-46660525D01*
X149052428Y-46854049D01*
X149004047Y-46950810D01*
X148955666Y-46999191D01*
X148858904Y-47047572D01*
X148762142Y-47047572D01*
X148665380Y-46999191D01*
X148617000Y-46950810D01*
X148568619Y-46854049D01*
X148568619Y-46612144D01*
X148617000Y-46467001D01*
X149536238Y-45305858D02*
X149584619Y-45209096D01*
X149584619Y-45015572D01*
X149536238Y-44918810D01*
X149439476Y-44870430D01*
X149391095Y-44870430D01*
X149294333Y-44918810D01*
X149245952Y-45015572D01*
X149245952Y-45160715D01*
X149197571Y-45257477D01*
X149100809Y-45305858D01*
X149052428Y-45305858D01*
X148955666Y-45257477D01*
X148907285Y-45160715D01*
X148907285Y-45015572D01*
X148955666Y-44918810D01*
X149584619Y-44435001D02*
X148907285Y-44435001D01*
X149100809Y-44435001D02*
X149004047Y-44386620D01*
X148955666Y-44338239D01*
X148907285Y-44241477D01*
X148907285Y-44144715D01*
X149536238Y-43370620D02*
X149584619Y-43467382D01*
X149584619Y-43660906D01*
X149536238Y-43757668D01*
X149487857Y-43806049D01*
X149391095Y-43854430D01*
X149100809Y-43854430D01*
X149004047Y-43806049D01*
X148955666Y-43757668D01*
X148907285Y-43660906D01*
X148907285Y-43467382D01*
X148955666Y-43370620D01*
D15*
X169404546Y-46820190D02*
X169428737Y-46796000D01*
X169477118Y-46771809D01*
X169598070Y-46771809D01*
X169646451Y-46796000D01*
X169670642Y-46820190D01*
X169694832Y-46868571D01*
X169694832Y-46916952D01*
X169670642Y-46989523D01*
X169380356Y-47279809D01*
X169694832Y-47279809D01*
X169912546Y-47086285D02*
X170299594Y-47086285D01*
X170783404Y-46771809D02*
X170541499Y-46771809D01*
X170517308Y-47013714D01*
X170541499Y-46989523D01*
X170589880Y-46965333D01*
X170710832Y-46965333D01*
X170759213Y-46989523D01*
X170783404Y-47013714D01*
X170807594Y-47062095D01*
X170807594Y-47183047D01*
X170783404Y-47231428D01*
X170759213Y-47255619D01*
X170710832Y-47279809D01*
X170589880Y-47279809D01*
X170541499Y-47255619D01*
X170517308Y-47231428D01*
X171243023Y-46771809D02*
X171146261Y-46771809D01*
X171097880Y-46796000D01*
X171073689Y-46820190D01*
X171025308Y-46892761D01*
X171001118Y-46989523D01*
X171001118Y-47183047D01*
X171025308Y-47231428D01*
X171049499Y-47255619D01*
X171097880Y-47279809D01*
X171194642Y-47279809D01*
X171243023Y-47255619D01*
X171267213Y-47231428D01*
X171291404Y-47183047D01*
X171291404Y-47062095D01*
X171267213Y-47013714D01*
X171243023Y-46989523D01*
X171194642Y-46965333D01*
X171097880Y-46965333D01*
X171049499Y-46989523D01*
X171025308Y-47013714D01*
X171001118Y-47062095D01*
D17*
X138212331Y-69943619D02*
X138792903Y-69943619D01*
X138502617Y-70959619D02*
X138502617Y-69943619D01*
X139131570Y-70427428D02*
X139470236Y-70427428D01*
X139615379Y-70959619D02*
X139131570Y-70959619D01*
X139131570Y-69943619D01*
X139615379Y-69943619D01*
X140002427Y-70911238D02*
X140147570Y-70959619D01*
X140389474Y-70959619D01*
X140486236Y-70911238D01*
X140534617Y-70862857D01*
X140582998Y-70766095D01*
X140582998Y-70669333D01*
X140534617Y-70572571D01*
X140486236Y-70524190D01*
X140389474Y-70475809D01*
X140195950Y-70427428D01*
X140099189Y-70379047D01*
X140050808Y-70330666D01*
X140002427Y-70233904D01*
X140002427Y-70137142D01*
X140050808Y-70040380D01*
X140099189Y-69992000D01*
X140195950Y-69943619D01*
X140437855Y-69943619D01*
X140582998Y-69992000D01*
X141744141Y-70911238D02*
X141840903Y-70959619D01*
X142034427Y-70959619D01*
X142131189Y-70911238D01*
X142179570Y-70814476D01*
X142179570Y-70766095D01*
X142131189Y-70669333D01*
X142034427Y-70620952D01*
X141889284Y-70620952D01*
X141792522Y-70572571D01*
X141744141Y-70475809D01*
X141744141Y-70427428D01*
X141792522Y-70330666D01*
X141889284Y-70282285D01*
X142034427Y-70282285D01*
X142131189Y-70330666D01*
X142614998Y-70959619D02*
X142614998Y-70282285D01*
X142614998Y-70475809D02*
X142663379Y-70379047D01*
X142711760Y-70330666D01*
X142808522Y-70282285D01*
X142905284Y-70282285D01*
X143679379Y-70911238D02*
X143582617Y-70959619D01*
X143389093Y-70959619D01*
X143292331Y-70911238D01*
X143243950Y-70862857D01*
X143195570Y-70766095D01*
X143195570Y-70475809D01*
X143243950Y-70379047D01*
X143292331Y-70330666D01*
X143389093Y-70282285D01*
X143582617Y-70282285D01*
X143679379Y-70330666D01*
D13*
X137763978Y-145844714D02*
X137763978Y-145082714D01*
X138017978Y-145627000D01*
X138271978Y-145082714D01*
X138271978Y-145844714D01*
X138961407Y-145844714D02*
X138961407Y-145445571D01*
X138925121Y-145373000D01*
X138852550Y-145336714D01*
X138707407Y-145336714D01*
X138634835Y-145373000D01*
X138961407Y-145808428D02*
X138888835Y-145844714D01*
X138707407Y-145844714D01*
X138634835Y-145808428D01*
X138598550Y-145735857D01*
X138598550Y-145663285D01*
X138634835Y-145590714D01*
X138707407Y-145554428D01*
X138888835Y-145554428D01*
X138961407Y-145518142D01*
X139251692Y-145336714D02*
X139433121Y-145844714D01*
X139614550Y-145336714D02*
X139433121Y-145844714D01*
X139360550Y-146026142D01*
X139324264Y-146062428D01*
X139251692Y-146098714D01*
X140449121Y-145155285D02*
X140485407Y-145119000D01*
X140557978Y-145082714D01*
X140739407Y-145082714D01*
X140811978Y-145119000D01*
X140848264Y-145155285D01*
X140884550Y-145227857D01*
X140884550Y-145300428D01*
X140848264Y-145409285D01*
X140412835Y-145844714D01*
X140884550Y-145844714D01*
X141356264Y-145082714D02*
X141428835Y-145082714D01*
X141501407Y-145119000D01*
X141537692Y-145155285D01*
X141573978Y-145227857D01*
X141610264Y-145373000D01*
X141610264Y-145554428D01*
X141573978Y-145699571D01*
X141537692Y-145772142D01*
X141501407Y-145808428D01*
X141428835Y-145844714D01*
X141356264Y-145844714D01*
X141283692Y-145808428D01*
X141247407Y-145772142D01*
X141211121Y-145699571D01*
X141174835Y-145554428D01*
X141174835Y-145373000D01*
X141211121Y-145227857D01*
X141247407Y-145155285D01*
X141283692Y-145119000D01*
X141356264Y-145082714D01*
X141900550Y-145155285D02*
X141936835Y-145119000D01*
X142009407Y-145082714D01*
X142190835Y-145082714D01*
X142263407Y-145119000D01*
X142299692Y-145155285D01*
X142335978Y-145227857D01*
X142335978Y-145300428D01*
X142299692Y-145409285D01*
X141864264Y-145844714D01*
X142335978Y-145844714D01*
X142989121Y-145336714D02*
X142989121Y-145844714D01*
X142807692Y-145046428D02*
X142626264Y-145590714D01*
X143097978Y-145590714D01*
D15*
X138654546Y-137270190D02*
X138678737Y-137246000D01*
X138727118Y-137221809D01*
X138848070Y-137221809D01*
X138896451Y-137246000D01*
X138920642Y-137270190D01*
X138944832Y-137318571D01*
X138944832Y-137366952D01*
X138920642Y-137439523D01*
X138630356Y-137729809D01*
X138944832Y-137729809D01*
X139162546Y-137536285D02*
X139549594Y-137536285D01*
X140033404Y-137221809D02*
X139791499Y-137221809D01*
X139767308Y-137463714D01*
X139791499Y-137439523D01*
X139839880Y-137415333D01*
X139960832Y-137415333D01*
X140009213Y-137439523D01*
X140033404Y-137463714D01*
X140057594Y-137512095D01*
X140057594Y-137633047D01*
X140033404Y-137681428D01*
X140009213Y-137705619D01*
X139960832Y-137729809D01*
X139839880Y-137729809D01*
X139791499Y-137705619D01*
X139767308Y-137681428D01*
X140493023Y-137221809D02*
X140396261Y-137221809D01*
X140347880Y-137246000D01*
X140323689Y-137270190D01*
X140275308Y-137342761D01*
X140251118Y-137439523D01*
X140251118Y-137633047D01*
X140275308Y-137681428D01*
X140299499Y-137705619D01*
X140347880Y-137729809D01*
X140444642Y-137729809D01*
X140493023Y-137705619D01*
X140517213Y-137681428D01*
X140541404Y-137633047D01*
X140541404Y-137512095D01*
X140517213Y-137463714D01*
X140493023Y-137439523D01*
X140444642Y-137415333D01*
X140347880Y-137415333D01*
X140299499Y-137439523D01*
X140275308Y-137463714D01*
X140251118Y-137512095D01*
D12*
X144726086Y-104657769D02*
X144302753Y-104657769D01*
X144363229Y-104657769D02*
X144332991Y-104627531D01*
X144302753Y-104567055D01*
X144302753Y-104476340D01*
X144332991Y-104415864D01*
X144393467Y-104385626D01*
X144726086Y-104385626D01*
X144393467Y-104385626D02*
X144332991Y-104355388D01*
X144302753Y-104294912D01*
X144302753Y-104204198D01*
X144332991Y-104143721D01*
X144393467Y-104113483D01*
X144726086Y-104113483D01*
X144091086Y-103690150D02*
X144091086Y-103569198D01*
X144121325Y-103508721D01*
X144181801Y-103448245D01*
X144302753Y-103418007D01*
X144514420Y-103418007D01*
X144635372Y-103448245D01*
X144695848Y-103508721D01*
X144726086Y-103569198D01*
X144726086Y-103690150D01*
X144695848Y-103750626D01*
X144635372Y-103811102D01*
X144514420Y-103841340D01*
X144302753Y-103841340D01*
X144181801Y-103811102D01*
X144121325Y-103750626D01*
X144091086Y-103690150D01*
X144726086Y-103145864D02*
X144091086Y-103145864D01*
X144726086Y-102873721D02*
X144393467Y-102873721D01*
X144332991Y-102903960D01*
X144302753Y-102964436D01*
X144302753Y-103055150D01*
X144332991Y-103115626D01*
X144363229Y-103145864D01*
X144726086Y-102571340D02*
X144302753Y-102571340D01*
X144363229Y-102571340D02*
X144332991Y-102541102D01*
X144302753Y-102480626D01*
X144302753Y-102389912D01*
X144332991Y-102329436D01*
X144393467Y-102299198D01*
X144726086Y-102299198D01*
X144393467Y-102299198D02*
X144332991Y-102268960D01*
X144302753Y-102208483D01*
X144302753Y-102117769D01*
X144332991Y-102057293D01*
X144393467Y-102027055D01*
X144726086Y-102027055D01*
X145748436Y-104657769D02*
X145113436Y-104657769D01*
X145355341Y-104657769D02*
X145325103Y-104597293D01*
X145325103Y-104476340D01*
X145355341Y-104415864D01*
X145385579Y-104385626D01*
X145446055Y-104355388D01*
X145627484Y-104355388D01*
X145687960Y-104385626D01*
X145718198Y-104415864D01*
X145748436Y-104476340D01*
X145748436Y-104597293D01*
X145718198Y-104657769D01*
X145748436Y-104083245D02*
X145325103Y-104083245D01*
X145113436Y-104083245D02*
X145143675Y-104113483D01*
X145173913Y-104083245D01*
X145143675Y-104053007D01*
X145113436Y-104083245D01*
X145173913Y-104083245D01*
X145748436Y-103508721D02*
X145415817Y-103508721D01*
X145355341Y-103538960D01*
X145325103Y-103599436D01*
X145325103Y-103720388D01*
X145355341Y-103780864D01*
X145718198Y-103508721D02*
X145748436Y-103569198D01*
X145748436Y-103720388D01*
X145718198Y-103780864D01*
X145657722Y-103811102D01*
X145597246Y-103811102D01*
X145536770Y-103780864D01*
X145506532Y-103720388D01*
X145506532Y-103569198D01*
X145476294Y-103508721D01*
X145718198Y-103236579D02*
X145748436Y-103176102D01*
X145748436Y-103055150D01*
X145718198Y-102994674D01*
X145657722Y-102964436D01*
X145627484Y-102964436D01*
X145567008Y-102994674D01*
X145536770Y-103055150D01*
X145536770Y-103145864D01*
X145506532Y-103206340D01*
X145446055Y-103236579D01*
X145415817Y-103236579D01*
X145355341Y-103206340D01*
X145325103Y-103145864D01*
X145325103Y-103055150D01*
X145355341Y-102994674D01*
X145748436Y-101845626D02*
X145446055Y-102057293D01*
X145748436Y-102208483D02*
X145113436Y-102208483D01*
X145113436Y-101966579D01*
X145143675Y-101906102D01*
X145173913Y-101875864D01*
X145234389Y-101845626D01*
X145325103Y-101845626D01*
X145385579Y-101875864D01*
X145415817Y-101906102D01*
X145446055Y-101966579D01*
X145446055Y-102208483D01*
D13*
X155877692Y-100333428D02*
X155986550Y-100369714D01*
X156167978Y-100369714D01*
X156240550Y-100333428D01*
X156276835Y-100297142D01*
X156313121Y-100224571D01*
X156313121Y-100152000D01*
X156276835Y-100079428D01*
X156240550Y-100043142D01*
X156167978Y-100006857D01*
X156022835Y-99970571D01*
X155950264Y-99934285D01*
X155913978Y-99898000D01*
X155877692Y-99825428D01*
X155877692Y-99752857D01*
X155913978Y-99680285D01*
X155950264Y-99644000D01*
X156022835Y-99607714D01*
X156204264Y-99607714D01*
X156313121Y-99644000D01*
X157147692Y-100442285D02*
X157075121Y-100406000D01*
X157002550Y-100333428D01*
X156893692Y-100224571D01*
X156821121Y-100188285D01*
X156748550Y-100188285D01*
X156784835Y-100369714D02*
X156712264Y-100333428D01*
X156639692Y-100260857D01*
X156603407Y-100115714D01*
X156603407Y-99861714D01*
X156639692Y-99716571D01*
X156712264Y-99644000D01*
X156784835Y-99607714D01*
X156929978Y-99607714D01*
X157002550Y-99644000D01*
X157075121Y-99716571D01*
X157111407Y-99861714D01*
X157111407Y-100115714D01*
X157075121Y-100260857D01*
X157002550Y-100333428D01*
X156929978Y-100369714D01*
X156784835Y-100369714D01*
X157437978Y-99607714D02*
X157437978Y-100224571D01*
X157474264Y-100297142D01*
X157510550Y-100333428D01*
X157583121Y-100369714D01*
X157728264Y-100369714D01*
X157800835Y-100333428D01*
X157837121Y-100297142D01*
X157873407Y-100224571D01*
X157873407Y-99607714D01*
X158236264Y-100369714D02*
X158236264Y-99607714D01*
X158599121Y-100369714D02*
X158599121Y-99607714D01*
X158780550Y-99607714D01*
X158889407Y-99644000D01*
X158961978Y-99716571D01*
X158998264Y-99789142D01*
X159034550Y-99934285D01*
X159034550Y-100043142D01*
X158998264Y-100188285D01*
X158961978Y-100260857D01*
X158889407Y-100333428D01*
X158780550Y-100369714D01*
X158599121Y-100369714D01*
X159941692Y-100369714D02*
X159941692Y-99861714D01*
X159941692Y-100006857D02*
X159977978Y-99934285D01*
X160014264Y-99898000D01*
X160086835Y-99861714D01*
X160159407Y-99861714D01*
X160304550Y-99861714D02*
X160594835Y-99861714D01*
X160413407Y-99607714D02*
X160413407Y-100260857D01*
X160449692Y-100333428D01*
X160522264Y-100369714D01*
X160594835Y-100369714D01*
X160848835Y-99861714D02*
X160848835Y-100369714D01*
X160848835Y-99934285D02*
X160885121Y-99898000D01*
X160957692Y-99861714D01*
X161066550Y-99861714D01*
X161139121Y-99898000D01*
X161175407Y-99970571D01*
X161175407Y-100369714D01*
X156677692Y-52533428D02*
X156786550Y-52569714D01*
X156967978Y-52569714D01*
X157040550Y-52533428D01*
X157076835Y-52497142D01*
X157113121Y-52424571D01*
X157113121Y-52352000D01*
X157076835Y-52279428D01*
X157040550Y-52243142D01*
X156967978Y-52206857D01*
X156822835Y-52170571D01*
X156750264Y-52134285D01*
X156713978Y-52098000D01*
X156677692Y-52025428D01*
X156677692Y-51952857D01*
X156713978Y-51880285D01*
X156750264Y-51844000D01*
X156822835Y-51807714D01*
X157004264Y-51807714D01*
X157113121Y-51844000D01*
X157947692Y-52642285D02*
X157875121Y-52606000D01*
X157802550Y-52533428D01*
X157693692Y-52424571D01*
X157621121Y-52388285D01*
X157548550Y-52388285D01*
X157584835Y-52569714D02*
X157512264Y-52533428D01*
X157439692Y-52460857D01*
X157403407Y-52315714D01*
X157403407Y-52061714D01*
X157439692Y-51916571D01*
X157512264Y-51844000D01*
X157584835Y-51807714D01*
X157729978Y-51807714D01*
X157802550Y-51844000D01*
X157875121Y-51916571D01*
X157911407Y-52061714D01*
X157911407Y-52315714D01*
X157875121Y-52460857D01*
X157802550Y-52533428D01*
X157729978Y-52569714D01*
X157584835Y-52569714D01*
X158237978Y-51807714D02*
X158237978Y-52424571D01*
X158274264Y-52497142D01*
X158310550Y-52533428D01*
X158383121Y-52569714D01*
X158528264Y-52569714D01*
X158600835Y-52533428D01*
X158637121Y-52497142D01*
X158673407Y-52424571D01*
X158673407Y-51807714D01*
X159036264Y-52569714D02*
X159036264Y-51807714D01*
X159399121Y-52569714D02*
X159399121Y-51807714D01*
X159580550Y-51807714D01*
X159689407Y-51844000D01*
X159761978Y-51916571D01*
X159798264Y-51989142D01*
X159834550Y-52134285D01*
X159834550Y-52243142D01*
X159798264Y-52388285D01*
X159761978Y-52460857D01*
X159689407Y-52533428D01*
X159580550Y-52569714D01*
X159399121Y-52569714D01*
X160741692Y-52569714D02*
X160741692Y-52061714D01*
X160741692Y-52206857D02*
X160777978Y-52134285D01*
X160814264Y-52098000D01*
X160886835Y-52061714D01*
X160959407Y-52061714D01*
X161104550Y-52061714D02*
X161394835Y-52061714D01*
X161213407Y-51807714D02*
X161213407Y-52460857D01*
X161249692Y-52533428D01*
X161322264Y-52569714D01*
X161394835Y-52569714D01*
X161648835Y-52061714D02*
X161648835Y-52569714D01*
X161648835Y-52134285D02*
X161685121Y-52098000D01*
X161757692Y-52061714D01*
X161866550Y-52061714D01*
X161939121Y-52098000D01*
X161975407Y-52170571D01*
X161975407Y-52569714D01*
X156027692Y-124308428D02*
X156136550Y-124344714D01*
X156317978Y-124344714D01*
X156390550Y-124308428D01*
X156426835Y-124272142D01*
X156463121Y-124199571D01*
X156463121Y-124127000D01*
X156426835Y-124054428D01*
X156390550Y-124018142D01*
X156317978Y-123981857D01*
X156172835Y-123945571D01*
X156100264Y-123909285D01*
X156063978Y-123873000D01*
X156027692Y-123800428D01*
X156027692Y-123727857D01*
X156063978Y-123655285D01*
X156100264Y-123619000D01*
X156172835Y-123582714D01*
X156354264Y-123582714D01*
X156463121Y-123619000D01*
X157297692Y-124417285D02*
X157225121Y-124381000D01*
X157152550Y-124308428D01*
X157043692Y-124199571D01*
X156971121Y-124163285D01*
X156898550Y-124163285D01*
X156934835Y-124344714D02*
X156862264Y-124308428D01*
X156789692Y-124235857D01*
X156753407Y-124090714D01*
X156753407Y-123836714D01*
X156789692Y-123691571D01*
X156862264Y-123619000D01*
X156934835Y-123582714D01*
X157079978Y-123582714D01*
X157152550Y-123619000D01*
X157225121Y-123691571D01*
X157261407Y-123836714D01*
X157261407Y-124090714D01*
X157225121Y-124235857D01*
X157152550Y-124308428D01*
X157079978Y-124344714D01*
X156934835Y-124344714D01*
X157587978Y-123582714D02*
X157587978Y-124199571D01*
X157624264Y-124272142D01*
X157660550Y-124308428D01*
X157733121Y-124344714D01*
X157878264Y-124344714D01*
X157950835Y-124308428D01*
X157987121Y-124272142D01*
X158023407Y-124199571D01*
X158023407Y-123582714D01*
X158386264Y-124344714D02*
X158386264Y-123582714D01*
X158749121Y-124344714D02*
X158749121Y-123582714D01*
X158930550Y-123582714D01*
X159039407Y-123619000D01*
X159111978Y-123691571D01*
X159148264Y-123764142D01*
X159184550Y-123909285D01*
X159184550Y-124018142D01*
X159148264Y-124163285D01*
X159111978Y-124235857D01*
X159039407Y-124308428D01*
X158930550Y-124344714D01*
X158749121Y-124344714D01*
X160091692Y-124344714D02*
X160091692Y-123836714D01*
X160091692Y-123981857D02*
X160127978Y-123909285D01*
X160164264Y-123873000D01*
X160236835Y-123836714D01*
X160309407Y-123836714D01*
X160454550Y-123836714D02*
X160744835Y-123836714D01*
X160563407Y-123582714D02*
X160563407Y-124235857D01*
X160599692Y-124308428D01*
X160672264Y-124344714D01*
X160744835Y-124344714D01*
X160998835Y-123836714D02*
X160998835Y-124344714D01*
X160998835Y-123909285D02*
X161035121Y-123873000D01*
X161107692Y-123836714D01*
X161216550Y-123836714D01*
X161289121Y-123873000D01*
X161325407Y-123945571D01*
X161325407Y-124344714D01*
D17*
X139212331Y-91943619D02*
X139792903Y-91943619D01*
X139502617Y-92959619D02*
X139502617Y-91943619D01*
X140131570Y-92427428D02*
X140470236Y-92427428D01*
X140615379Y-92959619D02*
X140131570Y-92959619D01*
X140131570Y-91943619D01*
X140615379Y-91943619D01*
X141002427Y-92911238D02*
X141147570Y-92959619D01*
X141389474Y-92959619D01*
X141486236Y-92911238D01*
X141534617Y-92862857D01*
X141582998Y-92766095D01*
X141582998Y-92669333D01*
X141534617Y-92572571D01*
X141486236Y-92524190D01*
X141389474Y-92475809D01*
X141195950Y-92427428D01*
X141099189Y-92379047D01*
X141050808Y-92330666D01*
X141002427Y-92233904D01*
X141002427Y-92137142D01*
X141050808Y-92040380D01*
X141099189Y-91992000D01*
X141195950Y-91943619D01*
X141437855Y-91943619D01*
X141582998Y-91992000D01*
X142744141Y-92911238D02*
X142840903Y-92959619D01*
X143034427Y-92959619D01*
X143131189Y-92911238D01*
X143179570Y-92814476D01*
X143179570Y-92766095D01*
X143131189Y-92669333D01*
X143034427Y-92620952D01*
X142889284Y-92620952D01*
X142792522Y-92572571D01*
X142744141Y-92475809D01*
X142744141Y-92427428D01*
X142792522Y-92330666D01*
X142889284Y-92282285D01*
X143034427Y-92282285D01*
X143131189Y-92330666D01*
X143614998Y-92959619D02*
X143614998Y-92282285D01*
X143614998Y-92475809D02*
X143663379Y-92379047D01*
X143711760Y-92330666D01*
X143808522Y-92282285D01*
X143905284Y-92282285D01*
X144679379Y-92911238D02*
X144582617Y-92959619D01*
X144389093Y-92959619D01*
X144292331Y-92911238D01*
X144243950Y-92862857D01*
X144195570Y-92766095D01*
X144195570Y-92475809D01*
X144243950Y-92379047D01*
X144292331Y-92330666D01*
X144389093Y-92282285D01*
X144582617Y-92282285D01*
X144679379Y-92330666D01*
D14*
X151606834Y-136219285D02*
X151534262Y-136291857D01*
X151316548Y-136364428D01*
X151171405Y-136364428D01*
X150953691Y-136291857D01*
X150808548Y-136146714D01*
X150735977Y-136001571D01*
X150663405Y-135711285D01*
X150663405Y-135493571D01*
X150735977Y-135203285D01*
X150808548Y-135058142D01*
X150953691Y-134913000D01*
X151171405Y-134840428D01*
X151316548Y-134840428D01*
X151534262Y-134913000D01*
X151606834Y-134985571D01*
X152259977Y-136364428D02*
X152259977Y-134840428D01*
X152913120Y-136364428D02*
X152913120Y-135566142D01*
X152840548Y-135421000D01*
X152695405Y-135348428D01*
X152477691Y-135348428D01*
X152332548Y-135421000D01*
X152259977Y-135493571D01*
X154291977Y-135348428D02*
X154291977Y-136364428D01*
X153929120Y-134767857D02*
X153566262Y-135856428D01*
X154509691Y-135856428D01*
D17*
X138212331Y-115943619D02*
X138792903Y-115943619D01*
X138502617Y-116959619D02*
X138502617Y-115943619D01*
X139131570Y-116427428D02*
X139470236Y-116427428D01*
X139615379Y-116959619D02*
X139131570Y-116959619D01*
X139131570Y-115943619D01*
X139615379Y-115943619D01*
X140002427Y-116911238D02*
X140147570Y-116959619D01*
X140389474Y-116959619D01*
X140486236Y-116911238D01*
X140534617Y-116862857D01*
X140582998Y-116766095D01*
X140582998Y-116669333D01*
X140534617Y-116572571D01*
X140486236Y-116524190D01*
X140389474Y-116475809D01*
X140195950Y-116427428D01*
X140099189Y-116379047D01*
X140050808Y-116330666D01*
X140002427Y-116233904D01*
X140002427Y-116137142D01*
X140050808Y-116040380D01*
X140099189Y-115992000D01*
X140195950Y-115943619D01*
X140437855Y-115943619D01*
X140582998Y-115992000D01*
X141744141Y-116911238D02*
X141840903Y-116959619D01*
X142034427Y-116959619D01*
X142131189Y-116911238D01*
X142179570Y-116814476D01*
X142179570Y-116766095D01*
X142131189Y-116669333D01*
X142034427Y-116620952D01*
X141889284Y-116620952D01*
X141792522Y-116572571D01*
X141744141Y-116475809D01*
X141744141Y-116427428D01*
X141792522Y-116330666D01*
X141889284Y-116282285D01*
X142034427Y-116282285D01*
X142131189Y-116330666D01*
X142614998Y-116959619D02*
X142614998Y-116282285D01*
X142614998Y-116475809D02*
X142663379Y-116379047D01*
X142711760Y-116330666D01*
X142808522Y-116282285D01*
X142905284Y-116282285D01*
X143679379Y-116911238D02*
X143582617Y-116959619D01*
X143389093Y-116959619D01*
X143292331Y-116911238D01*
X143243950Y-116862857D01*
X143195570Y-116766095D01*
X143195570Y-116475809D01*
X143243950Y-116379047D01*
X143292331Y-116330666D01*
X143389093Y-116282285D01*
X143582617Y-116282285D01*
X143679379Y-116330666D01*
%LPC*%
D18*
G36*
X174000000Y-112500000D02*
G01*
X164350000Y-112500000D01*
X164350000Y-93000000D01*
X174000000Y-93000000D01*
X174000000Y-112500000D01*
G37*
G36*
X159500000Y-74000000D02*
G01*
X154000000Y-74000000D01*
X150000000Y-78000000D01*
X143500000Y-78000000D01*
X143500000Y-80000000D01*
X138000000Y-80000000D01*
X138000000Y-77500000D01*
X150500000Y-65000000D01*
X159500000Y-65000000D01*
X159500000Y-74000000D01*
G37*
G36*
X174000000Y-133000000D02*
G01*
X164400000Y-133000000D01*
X164400000Y-115000000D01*
X174000000Y-115000000D01*
X174000000Y-133000000D01*
G37*
G36*
X159500000Y-98000000D02*
G01*
X151500000Y-98000000D01*
X150000000Y-101500000D01*
X143500000Y-101500000D01*
X143500000Y-103000000D01*
X138500000Y-103000000D01*
X138500000Y-100000000D01*
X150000000Y-88500000D01*
X159500000Y-88500000D01*
X159500000Y-98000000D01*
G37*
G36*
X159500000Y-51500000D02*
G01*
X154500000Y-51500000D01*
X151000000Y-54500000D01*
X151000000Y-57550000D01*
X143500000Y-57550000D01*
X143500000Y-59000000D01*
X138000000Y-59000000D01*
X138000000Y-56500000D01*
X147500000Y-56500000D01*
X150000000Y-51500000D01*
X150000000Y-42000000D01*
X159500000Y-42000000D01*
X159500000Y-51500000D01*
G37*
G36*
X174000000Y-91000000D02*
G01*
X164300000Y-91000000D01*
X164300000Y-71500000D01*
X174000000Y-71500000D01*
X174000000Y-91000000D01*
G37*
G36*
X160000000Y-122500000D02*
G01*
X151500000Y-122500000D01*
X150000000Y-125500000D01*
X143500000Y-125500000D01*
X143500000Y-126000000D01*
X138000000Y-126000000D01*
X138000000Y-123500000D01*
X149500000Y-112500000D01*
X160000000Y-112500000D01*
X160000000Y-122500000D01*
G37*
G36*
X162500000Y-63000000D02*
G01*
X138000000Y-63000000D01*
X138000000Y-61200000D01*
X153500000Y-61200000D01*
X153975000Y-53875000D01*
X162500000Y-53000000D01*
X162500000Y-63000000D01*
G37*
G36*
X162500000Y-110000000D02*
G01*
X138500000Y-110000000D01*
X138500000Y-104000000D01*
X143450000Y-103975000D01*
X143427254Y-105518288D01*
X153002254Y-105568288D01*
X153000000Y-101500000D01*
X162500000Y-101500000D01*
X162500000Y-110000000D01*
G37*
G36*
X162500000Y-133350000D02*
G01*
X138000000Y-133350000D01*
X138000000Y-127500000D01*
X143225000Y-127500000D01*
X143250000Y-129475000D01*
X153489688Y-129468889D01*
X153500000Y-125000000D01*
X162500000Y-125000000D01*
X162500000Y-133350000D01*
G37*
G36*
X174000000Y-70500000D02*
G01*
X164250000Y-70500000D01*
X164250000Y-51000000D01*
X174000000Y-51000000D01*
X174000000Y-70500000D01*
G37*
G36*
X162500000Y-86000000D02*
G01*
X138000000Y-86000000D01*
X138000000Y-81000000D01*
X143275000Y-81025000D01*
X143300000Y-82425000D01*
X148025000Y-82360443D01*
X153100000Y-82375000D01*
X153000000Y-77500000D01*
X162500000Y-77500000D01*
X162500000Y-86000000D01*
G37*
D19*
%TO.C,J20*%
X169500000Y-117500000D03*
X169500000Y-121500000D03*
D20*
X169500000Y-119500000D03*
%TD*%
D19*
%TO.C,J19*%
X169500000Y-126500000D03*
X169500000Y-130500000D03*
D20*
X169500000Y-128500000D03*
%TD*%
D21*
%TO.C,J16*%
X169470000Y-85920000D03*
%TD*%
%TO.C,J15*%
X169470000Y-76420000D03*
%TD*%
D22*
%TO.C,J14*%
X169500000Y-65750000D03*
D23*
X166565000Y-68685000D03*
X172435000Y-62815000D03*
X172435000Y-68685000D03*
X166565000Y-62815000D03*
%TD*%
D22*
%TO.C,J13*%
X169475000Y-55500000D03*
D23*
X166540000Y-58435000D03*
X172410000Y-52565000D03*
X172410000Y-58435000D03*
X166540000Y-52565000D03*
%TD*%
D20*
%TO.C,J12*%
X159000000Y-129200000D03*
D19*
X159000000Y-131200000D03*
X159000000Y-127200000D03*
%TD*%
%TO.C,J11*%
X154000000Y-115500000D03*
X154000000Y-119500000D03*
D20*
X154000000Y-117500000D03*
%TD*%
D21*
%TO.C,J8*%
X157970000Y-81680000D03*
%TD*%
%TO.C,J7*%
X154645000Y-69420000D03*
%TD*%
D23*
%TO.C,J6*%
X155065000Y-55090000D03*
X160935000Y-60960000D03*
X160935000Y-55090000D03*
X155065000Y-60960000D03*
D22*
X158000000Y-58025000D03*
%TD*%
%TO.C,J5*%
X154675000Y-46500000D03*
D23*
X151740000Y-49435000D03*
X157610000Y-43565000D03*
X157610000Y-49435000D03*
X151740000Y-43565000D03*
%TD*%
D24*
%TO.C,J10*%
X160540000Y-108200000D03*
X160540000Y-105660000D03*
X155460000Y-103120000D03*
X155460000Y-108200000D03*
X158000000Y-105660000D03*
X158000000Y-103120000D03*
X160540000Y-103120000D03*
X158000000Y-108200000D03*
X155460000Y-105660000D03*
%TD*%
D25*
%TO.C,J3*%
X142140000Y-102250000D03*
D26*
X139600000Y-102250000D03*
X142140000Y-104790000D03*
X139600000Y-104790000D03*
%TD*%
D24*
%TO.C,J17*%
X169500000Y-95320000D03*
X169500000Y-97860000D03*
X172040000Y-100400000D03*
X169500000Y-100400000D03*
X172040000Y-95320000D03*
X166960000Y-95320000D03*
X166960000Y-97860000D03*
X172040000Y-97860000D03*
X166960000Y-100400000D03*
%TD*%
D25*
%TO.C,J2*%
X142000000Y-79250000D03*
D26*
X139460000Y-79250000D03*
X142000000Y-81790000D03*
X139460000Y-81790000D03*
%TD*%
D24*
%TO.C,J18*%
X169500000Y-104820000D03*
X166960000Y-107360000D03*
X172040000Y-104820000D03*
X169500000Y-107360000D03*
X166960000Y-109900000D03*
X169500000Y-109900000D03*
X172040000Y-109900000D03*
X166960000Y-104820000D03*
X172040000Y-107360000D03*
%TD*%
D27*
%TO.C,R4*%
X148000000Y-124650000D03*
X148000000Y-130350000D03*
%TD*%
%TO.C,R1*%
X148975000Y-56725000D03*
X148975000Y-62425000D03*
%TD*%
%TO.C,R2*%
X148000000Y-77450000D03*
X148000000Y-83150000D03*
%TD*%
D25*
%TO.C,J1*%
X142000000Y-58500000D03*
D26*
X139460000Y-58500000D03*
X142000000Y-61040000D03*
X139460000Y-61040000D03*
%TD*%
D28*
%TO.C,HS1*%
X170000000Y-144950000D03*
%TD*%
D24*
%TO.C,J9*%
X152135000Y-93000000D03*
X154675000Y-90460000D03*
X157215000Y-90460000D03*
X157215000Y-95540000D03*
X154675000Y-95540000D03*
X157215000Y-93000000D03*
X152135000Y-90460000D03*
X152135000Y-95540000D03*
X154675000Y-93000000D03*
%TD*%
D29*
%TO.C,HS4*%
X159000000Y-144950000D03*
%TD*%
D28*
%TO.C,HS2*%
X154000000Y-144950000D03*
%TD*%
%TO.C,HS3*%
X173000000Y-144950000D03*
%TD*%
D25*
%TO.C,J4*%
X142000000Y-125500000D03*
D26*
X139460000Y-125500000D03*
X142000000Y-128040000D03*
X139460000Y-128040000D03*
%TD*%
D27*
%TO.C,R3*%
X148000000Y-100650000D03*
X148000000Y-106350000D03*
%TD*%
D30*
%TO.C,H2*%
X145000000Y-47500000D03*
%TD*%
%TO.C,H4*%
X165000000Y-137050000D03*
%TD*%
%TO.C,H1*%
X145000000Y-137050000D03*
%TD*%
%TO.C,H3*%
X165000000Y-47050000D03*
%TD*%
M02*
